<svg id="layer101" xmlns="http://www.w3.org/2000/svg" width="93.348" height="66.48" viewBox="0 0 93.348 66.48">
  <path id="Path_6856" data-name="Path 6856" d="M23.956.029c5.383.448,9.509,2.315,12.463,5.641a26.669,26.669,0,0,1,4.859,9.214,29.517,29.517,0,0,1,1.182,9.938,30.862,30.862,0,0,1-3.268,14.169c-3.964,8-10.729,14.94-19.476,19.981A100.228,100.228,0,0,1,7.329,64.765c-1.42.553-4.7,1.715-4.821,1.715-.019,0-.038-1.963-.038-4.364V57.761l1.172-.467A47.955,47.955,0,0,0,18.01,48.176a24.346,24.346,0,0,0,3.068-3.9,25.546,25.546,0,0,0,2.506-5.946c.076-.314.162-.648.191-.734.038-.133-.143-.162-1.363-.21a27.43,27.43,0,0,1-13.73-4.25,14.652,14.652,0,0,1-6.26-9.014,21.02,21.02,0,0,1-.648-5.765,19.682,19.682,0,0,1,.162-3.049A16.093,16.093,0,0,1,9.7,3.488,22.254,22.254,0,0,1,18.477.21,42.171,42.171,0,0,1,23.956.029Z" transform="translate(50.876 0)" fill="#2b44ff"/>
  <path id="Path_6857" data-name="Path 6857" d="M5548.2.067a22.044,22.044,0,0,1,7.032,1.839,18.1,18.1,0,0,1,3.583,2.373c2.544,2.211,5.088,6.555,6.289,10.748a35.8,35.8,0,0,1-.609,20.381,32.624,32.624,0,0,1-2.716,5.812,49.094,49.094,0,0,1-19.094,18.2,107.227,107.227,0,0,1-12.7,5.774c-.867.324-3.659,1.277-3.716,1.277-.02,0-.029-1.963-.029-4.364V57.752l1.2-.476a50.542,50.542,0,0,0,13.1-7.928A21.748,21.748,0,0,0,5547.3,38.6c.152-.572.286-1.058.286-1.1a6.274,6.274,0,0,0-1.314-.124c-6.422-.286-12.606-2.649-16.132-6.155a15.366,15.366,0,0,1-4.3-8.823,33.888,33.888,0,0,1-.133-6.956c.733-5.345,3.439-9.338,8.318-12.3A22.048,22.048,0,0,1,5542.249.2,36.384,36.384,0,0,1,5548.2.067Z" transform="translate(-5525.587 0.01)" fill="#2b44ff"/>
</svg>
