<svg id="layer101" xmlns="http://www.w3.org/2000/svg" width="93.347" height="66.48" viewBox="0 0 93.347 66.48">
  <path id="Path_6856" data-name="Path 6856" d="M20.289.029C14.906.477,10.78,2.345,7.827,5.67a26.669,26.669,0,0,0-4.859,9.214,29.517,29.517,0,0,0-1.182,9.938A30.862,30.862,0,0,0,5.054,38.991c3.964,8,10.729,14.94,19.476,19.981a100.228,100.228,0,0,0,12.387,5.793c1.42.553,4.7,1.715,4.821,1.715.019,0,.038-1.963.038-4.364V57.761L40.6,57.295a47.955,47.955,0,0,1-14.369-9.119,24.346,24.346,0,0,1-3.068-3.9,25.546,25.546,0,0,1-2.506-5.946c-.076-.314-.162-.648-.191-.734-.038-.133.143-.162,1.363-.21a27.43,27.43,0,0,0,13.73-4.25,14.652,14.652,0,0,0,6.26-9.014,21.02,21.02,0,0,0,.648-5.765,19.682,19.682,0,0,0-.162-3.049A16.093,16.093,0,0,0,34.544,3.488,22.254,22.254,0,0,0,25.768.21,42.171,42.171,0,0,0,20.289.029Z" transform="translate(-1.774 0)" fill="#2b44ff"/>
  <path id="Path_6857" data-name="Path 6857" d="M5543.686.067a22.043,22.043,0,0,0-7.033,1.839,18.131,18.131,0,0,0-3.583,2.373c-2.543,2.211-5.087,6.555-6.289,10.748a35.8,35.8,0,0,0,.61,20.381,32.62,32.62,0,0,0,2.716,5.812,49.1,49.1,0,0,0,19.094,18.2,107.3,107.3,0,0,0,12.7,5.774c.867.324,3.659,1.277,3.716,1.277.019,0,.028-1.963.028-4.364V57.752l-1.2-.476a50.55,50.55,0,0,1-13.1-7.928A21.751,21.751,0,0,1,5544.59,38.6c-.152-.572-.286-1.058-.286-1.1a6.274,6.274,0,0,1,1.314-.124c6.422-.286,12.606-2.649,16.132-6.155a15.366,15.366,0,0,0,4.3-8.823,33.923,33.923,0,0,0,.133-6.956c-.733-5.345-3.439-9.338-8.318-12.3A22.053,22.053,0,0,0,5549.641.2,36.379,36.379,0,0,0,5543.686.067Z" transform="translate(-5472.955 0.01)" fill="#2b44ff"/>
</svg>
