<svg xmlns="http://www.w3.org/2000/svg" width="50" height="46.647" viewBox="0 0 50 46.647">
  <g id="Group_213" data-name="Group 213" transform="translate(-1138.985 -5403.339)">
    <g id="Group_212" data-name="Group 212" transform="translate(1149.668 5410.669)">
      <path id="Path_1" data-name="Path 1" d="M98.093,81.265a3,3,0,0,1-3.181,3.182,3.06,3.06,0,0,1-3.182-3.023,3.226,3.226,0,0,1,3.182-3.34A3.093,3.093,0,0,1,98.093,81.265Z" transform="translate(-91.73 -78.084)" fill="#fff"/>
      <rect id="Rectangle_1" data-name="Rectangle 1" width="6.363" height="20.679" transform="translate(0 7.953)" fill="#fff"/>
      <path id="Path_2" data-name="Path 2" d="M115.175,87.952a6.967,6.967,0,0,0-6.045,3.181h-.159l-.318-2.7h-5.727c0,1.75.159,3.818.159,6.2v13.68h6.362V97.019a4.9,4.9,0,0,1,.159-1.591c.477-1.113,1.272-2.545,3.023-2.545,2.227,0,3.181,1.909,3.181,4.454v10.976h6.363V96.541C122.175,90.656,119.152,87.952,115.175,87.952Z" transform="translate(-93.541 -79.68)" fill="#fff"/>
    </g>
    <rect id="Rectangle_2" data-name="Rectangle 2" width="50" height="46.647" rx="12.613" transform="translate(1138.985 5403.339)" fill="none"/>
  </g>
</svg>
