<svg xmlns="http://www.w3.org/2000/svg" width="50.074" height="50.885" viewBox="0 0 50.074 50.885">
  <g id="Group_214" data-name="Group 214" transform="translate(-1300.234 -5385.339)">
    <path id="Path_806" data-name="Path 806" d="M9.322,0H40.678A9.178,9.178,0,0,1,50,9.027V39.391a9.178,9.178,0,0,1-9.322,9.027H9.322A9.178,9.178,0,0,1,0,39.391V9.027A9.178,9.178,0,0,1,9.322,0Z" transform="translate(1300.234 5386.339)" fill="none"/>
    <path id="Path_805" data-name="Path 805" d="M9.322,0H40.678A9.406,9.406,0,0,1,50,9.487V41.4a9.406,9.406,0,0,1-9.322,9.487H9.322A9.406,9.406,0,0,1,0,41.4V9.487A9.406,9.406,0,0,1,9.322,0Z" transform="translate(1300.309 5385.339)" fill="none"/>
    <path id="Path_41" data-name="Path 41" d="M392.8,276.191h2.666v-5.3l-4.016,0c-5.688,0-8.387,3.09-8.387,7.49v4.168h-4.455v5.032h4.455v12.8h6.681v-12.8H394.2l1.265-5.03h-5.72v-3.436A2.8,2.8,0,0,1,392.8,276.191Z" transform="translate(938.02 5124.931)" fill="#fff"/>
  </g>
</svg>
