<svg xmlns="http://www.w3.org/2000/svg" width="50" height="48.418" viewBox="0 0 50 48.418">
  <g id="Group_15" data-name="Group 15" transform="translate(-216.234 -61.339)">
    <g id="Group_14" data-name="Group 14" transform="translate(223.143 70.688)">
      <path id="Path_14" data-name="Path 14" d="M229.266,104.349a15.334,15.334,0,0,0,10.69-2.905c-.7-.177-1.29-.3-1.864-.478a7.337,7.337,0,0,1-4.6-4.148c-.289-.629-.225-.68.461-.669a5.549,5.549,0,0,0,2.274-.2,7.625,7.625,0,0,1-3.2-1.758,7.2,7.2,0,0,1-2.381-4.847c-.059-.779.039-.833.733-.516a5.29,5.29,0,0,0,2.235.518A21.156,21.156,0,0,1,232.1,87.7a7.378,7.378,0,0,1-.78-7.5c.3-.7.419-.729.926-.159a21.211,21.211,0,0,0,13.833,7.147c.845.086.917,0,.82-.831a7.617,7.617,0,0,1,4.021-7.434,7.509,7.509,0,0,1,8.375,1,1.313,1.313,0,0,0,1.376.33,16.228,16.228,0,0,0,3.312-1.28c.163-.086.306-.264.613-.151a8.107,8.107,0,0,1-2.767,3.814,14.6,14.6,0,0,0,3.612-.976,1.158,1.158,0,0,1-.391.847,12.966,12.966,0,0,1-2.543,2.566,1.4,1.4,0,0,0-.6,1.283,21.031,21.031,0,0,1-4.478,13.295,19.928,19.928,0,0,1-14.03,7.982,21.25,21.25,0,0,1-13.448-2.721c-.152-.087-.3-.184-.444-.284A2.323,2.323,0,0,1,229.266,104.349Z" transform="translate(-229.266 -78.084)" fill="#fff"/>
    </g>
    <path id="Path_804" data-name="Path 804" d="M9.322,0H40.678A9.178,9.178,0,0,1,50,9.027V39.391a9.178,9.178,0,0,1-9.322,9.027H9.322A9.178,9.178,0,0,1,0,39.391V9.027A9.178,9.178,0,0,1,9.322,0Z" transform="translate(216.234 61.339)" fill="none"/>
  </g>
</svg>
