<svg id="Group_924" data-name="Group 924" xmlns="http://www.w3.org/2000/svg" width="429.262" height="280.469" viewBox="0 0 429.262 280.469">
  <path id="Path_621" data-name="Path 621" d="M817.589,155.09H739.235a233.428,233.428,0,0,0,0,89.612c22.943-3.716,49.6-3.066,78.354,0C811.757,214.176,811.49,184.273,817.589,155.09Z" transform="translate(-452.38 -151.829)" opacity="0.1"/>
  <path id="Path_622" data-name="Path 622" d="M210.741,677.03c1.51-2.559-.2-5.694-2.159-7.98s-4.333-4.645-4.283-7.566c.075-4.18,4.881-6.647,8.721-8.862a41.853,41.853,0,0,0,7.83-5.811,10.8,10.8,0,0,0,2.405-2.973,11.206,11.206,0,0,0,.725-5.286q-.257-8.946-.961-17.873" transform="translate(-188.799 -401.163)" fill="none" stroke="#3f3d56" stroke-miterlimit="10" stroke-width="4"/>
  <path id="Path_623" data-name="Path 623" d="M242.077,612.759a6.456,6.456,0,0,0-3.523-5.341l-1.58,2.884.05-3.493a7.357,7.357,0,0,0-7.828,2.571,6.1,6.1,0,0,0,.268,7.664,7.412,7.412,0,0,0,7.991,2.1,6.522,6.522,0,0,0,4.6-6.385Z" transform="translate(-200.56 -393.59)" fill="#57b894"/>
  <path id="Path_624" data-name="Path 624" d="M217.865,703.984a7.272,7.272,0,0,1-8.128,3.289,6.571,6.571,0,0,1-5.166-6.661,6.732,6.732,0,0,1,5.994-6.041,7.133,7.133,0,0,1,7.642,4.164l-4.413,3.312,4.856-1.036a6.1,6.1,0,0,1-.785,2.973Z" transform="translate(-188.928 -440.695)" fill="#57b894"/>
  <path id="Path_625" data-name="Path 625" d="M216.577,672.644A6.949,6.949,0,0,1,209.1,667.2a6.529,6.529,0,0,1,5.24-7.344l-.04,2.689,1.6-2.922h0A7.408,7.408,0,0,1,221,661.3a6.31,6.31,0,0,1,2.3,4.528,5.965,5.965,0,0,1-.3,2.225A6.975,6.975,0,0,1,216.577,672.644Z" transform="translate(-191.138 -422.011)" fill="#57b894"/>
  <path id="Path_626" data-name="Path 626" d="M250.91,650.01a7.088,7.088,0,0,1-6.8-4.08,6.169,6.169,0,0,1,1.865-7.284,7.512,7.512,0,0,1,8.058-.838l-1.248,3.158,2.567-2.276a6.308,6.308,0,0,1,2.28,4.5,5.885,5.885,0,0,1-.176,1.793A6.948,6.948,0,0,1,250.91,650.01Z" transform="translate(-208.326 -409.908)" fill="#57b894"/>
  <path id="Path_627" data-name="Path 627" d="M241.194,618.61c-1.63.167-3.216.636-4.851.729a5.557,5.557,0,0,1-4.469-1.44,20.756,20.756,0,0,1-1.3-2.123,4.891,4.891,0,0,0-1.782-1.547,6.1,6.1,0,0,0,.837,6.849,7.376,7.376,0,0,0,7.037,2.307,6.809,6.809,0,0,0,5.331-4.827C241.727,618.568,241.461,618.587,241.194,618.61Z" transform="translate(-200.623 -397.709)" opacity="0.1"/>
  <path id="Path_628" data-name="Path 628" d="M250.813,654.289a7.247,7.247,0,0,1-6.217-2.884,6.077,6.077,0,0,1-.5-6.406,5.05,5.05,0,0,1,1.419,1.315,21.566,21.566,0,0,0,1.4,2.155,6.058,6.058,0,0,0,4.685,1.51c1.706-.074,3.352-.516,5.032-.66.237,0,.473-.032.715-.042A6.948,6.948,0,0,1,250.813,654.289Z" transform="translate(-208.229 -414.187)" opacity="0.1"/>
  <path id="Path_629" data-name="Path 629" d="M216.744,677.088a7.253,7.253,0,0,1-6.179-2.833,6.079,6.079,0,0,1-.595-6.345,5.61,5.61,0,0,1,1.51,1.324,26.456,26.456,0,0,0,1.51,2.2,6.854,6.854,0,0,0,5,1.617c1.8-.042,3.437-.432,5.173-.553A6.973,6.973,0,0,1,216.744,677.088Z" transform="translate(-191.305 -426.456)" opacity="0.1"/>
  <path id="Path_630" data-name="Path 630" d="M217.679,708.788a7.3,7.3,0,0,1-9.32,3.284,6.32,6.32,0,0,1-3.558-8.6,6.8,6.8,0,0,1,1.55,1.273,27.9,27.9,0,0,0,1.892,2.322,9.261,9.261,0,0,0,5.853,1.9A33.856,33.856,0,0,0,217.679,708.788Z" transform="translate(-188.743 -445.499)" opacity="0.1"/>
  <path id="Path_631" data-name="Path 631" d="M195.93,734.26a57.181,57.181,0,0,0,7.257-3.121c1.681-1.105,8.555-2.425,8.988-.65s8.379,8.825,2.088,8.853-14.624.952-16.3,0S195.93,734.26,195.93,734.26Z" transform="translate(-184.642 -459.503)" fill="#656380"/>
  <path id="Path_632" data-name="Path 632" d="M214.374,744.052c-6.3.047-14.624.929-16.3,0-1.278-.715-1.787-3.293-1.958-4.482h-.186s.352,4.148,2.013,5.109,10.009.037,16.3,0c1.817,0,2.441-.608,2.405-1.5C216.417,743.708,215.727,744.043,214.374,744.052Z" transform="translate(-184.642 -464.831)" opacity="0.2"/>
  <path id="Path_633" data-name="Path 633" d="M969.908,634.025c-2.385-4.078.322-9.076,3.432-12.713s6.91-7.432,6.829-12.076c-.116-6.665-7.775-10.595-13.9-14.129a67.162,67.162,0,0,1-12.475-9.257,16.671,16.671,0,0,1-3.835-4.738c-1.268-2.606-1.233-5.574-1.152-8.421q.4-14.264,1.51-28.491" transform="translate(-558.627 -360.206)" fill="none" stroke="#3f3d56" stroke-miterlimit="10" stroke-width="4"/>
  <path id="Path_634" data-name="Path 634" d="M928.753,531.692a10.288,10.288,0,0,1,5.616-8.509l2.516,4.6-.075-5.574a11.752,11.752,0,0,1,12.5,4.124,9.752,9.752,0,0,1-.452,12.25,11.846,11.846,0,0,1-12.78,3.329,10.415,10.415,0,0,1-7.325-10.223Z" transform="translate(-548.677 -348.2)" fill="#57b894"/>
  <path id="Path_635" data-name="Path 635" d="M967.423,677.059a11.613,11.613,0,0,0,12.981,5.267,10.5,10.5,0,0,0,8.258-10.638,10.752,10.752,0,0,0-9.578-9.651,11.391,11.391,0,0,0-12.205,6.662l7.045,5.281-7.735-1.658a9.7,9.7,0,0,0,1.233,4.738Z" transform="translate(-567.278 -423.249)" fill="#57b894"/>
  <path id="Path_636" data-name="Path 636" d="M969.1,627.15c5.715.243,10.719-3.509,11.632-8.722s-2.557-10.229-8.064-11.659l.06,4.283-2.546-4.645h-.03c-6.211-.268-11.481,4.161-11.771,9.893s4.509,10.6,10.719,10.864Z" transform="translate(-563.391 -393.513)" fill="#57b894"/>
  <path id="Path_637" data-name="Path 637" d="M914.823,591.054a11.34,11.34,0,0,0,10.962-6.481,9.858,9.858,0,0,0-2.993-11.694,12,12,0,0,0-12.946-1.268l2.013,5.03-4.091-3.623a9.855,9.855,0,0,0-2.98,11.187A11.2,11.2,0,0,0,914.823,591.054Z" transform="translate(-536.444 -374.175)" fill="#57b894"/>
  <path id="Path_638" data-name="Path 638" d="M930.5,541c2.6.265,5.128,1.013,7.735,1.161s5.47-.427,7.116-2.322a31.188,31.188,0,0,0,2.084-3.381A7.853,7.853,0,0,1,950.27,534a9.741,9.741,0,0,1-1.163,11.1,11.782,11.782,0,0,1-11.387,3.733,10.842,10.842,0,0,1-8.49-7.937C929.658,540.935,930.08,540.967,930.5,541Z" transform="translate(-548.918 -354.744)" opacity="0.1"/>
  <path id="Path_639" data-name="Path 639" d="M915.082,597.863A11.586,11.586,0,0,0,925,593.234,9.719,9.719,0,0,0,925.791,583a8.018,8.018,0,0,0-2.265,2.095,33.584,33.584,0,0,1-2.229,3.432c-1.751,1.9-4.751,2.522-7.468,2.411s-5.334-.827-8.052-1.059c-.378-.028-.755-.051-1.137-.06A11.057,11.057,0,0,0,915.082,597.863Z" transform="translate(-536.703 -380.984)" opacity="0.1"/>
  <path id="Path_640" data-name="Path 640" d="M969.586,634.216a11.587,11.587,0,0,0,9.828-4.528,9.714,9.714,0,0,0,.971-10.1A8.7,8.7,0,0,0,978,621.7a35.491,35.491,0,0,1-2.446,3.5c-1.9,1.951-5.088,2.638-7.966,2.573-2.788-.056-5.47-.687-8.243-.882A11.139,11.139,0,0,0,969.586,634.216Z" transform="translate(-563.88 -400.579)" opacity="0.1"/>
  <path id="Path_641" data-name="Path 641" d="M968.64,684.737c2.73,4.917,9.152,7,14.616,4.744s8.059-8.066,5.906-13.221a10.96,10.96,0,0,0-2.471,2.034,40.936,40.936,0,0,1-3.019,3.688c-2.3,2.086-6.013,2.945-9.32,3.024a52.961,52.961,0,0,1-5.712-.269Z" transform="translate(-568.496 -430.927)" opacity="0.1"/>
  <path id="Path_642" data-name="Path 642" d="M991.853,724.23s-8.882-2.109-11.574-3.869-13.668-3.86-14.332-1.04-13.351,14.037-3.321,14.111,23.3.418,25.977-1.087S991.853,724.23,991.853,724.23Z" transform="translate(-563.597 -453.249)" fill="#656380"/>
  <path id="Path_643" data-name="Path 643" d="M962.481,739.69c10.029.074,23.3.413,25.977-1.087,2.013-1.147,2.843-5.249,3.115-7.144h.3s-.564,6.614-3.236,8.114-15.948,1.161-25.977,1.087c-2.894,0-3.9-.971-3.84-2.378C959.22,739.142,960.322,739.672,962.481,739.69Z" transform="translate(-563.615 -460.488)" opacity="0.2"/>
  <path id="Path_644" data-name="Path 644" d="M339.544,159.94H261.19c6.1,29.183,5.832,59.086,0,89.612,28.75-3.066,55.416-3.716,78.354,0A233.433,233.433,0,0,0,339.544,159.94Z" transform="translate(-217.061 -154.427)" opacity="0.1"/>
  <path id="Path_645" data-name="Path 645" d="M525.8,243.281c-7.649.5-14.825,5.434-15.349,11.83-.287,3.479,1.288,7.028.649,10.46-.84,4.543-5.349,7.9-10.065,10.177s-9.929,4-13.849,7.139-6.215,8.361-3.447,12.453c1.062,1.57,2.738,2.787,4.1,4.18a13.12,13.12,0,0,1,3.2,13.707c-1.585,4.111-5.45,7.734-5.032,12.1.4,4.18,4.826,7.571,9.617,8.895s9.914,1.012,14.871.683c5.722-.376,12.138-1.064,15.464-4.891,3.573-4.111,1.978-10.033,3.88-14.891,3.794-9.68,19.49-12.035,25.761-20.7,3.019-4.18,3.478-9.331,3.432-14.292C558.9,264.424,549.768,241.716,525.8,243.281Z" transform="translate(-327.01 -199.017)" fill="#3f3d56"/>
  <path id="Path_646" data-name="Path 646" d="M557.508,311.49s2.516,7.432-6.039,11.612,7.045,14.4,7.045,14.4l12.078,4.18,13.587-5.574-2.516-19.044s-11.575,3.716-11.575-9.754Z" transform="translate(-359.988 -233.346)" fill="#a0616a"/>
  <path id="Path_647" data-name="Path 647" d="M557.508,311.49s2.516,7.432-6.039,11.612,7.045,14.4,7.045,14.4l12.078,4.18,13.587-5.574-2.516-19.044s-11.575,3.716-11.575-9.754Z" transform="translate(-359.988 -233.346)" opacity="0.1"/>
  <path id="Path_648" data-name="Path 648" d="M601.53,676.042s-2.516,15.792-1.006,17.65,8.555.929,8.555.929,1.51-15.792,2.013-17.65S601.53,676.042,601.53,676.042Z" transform="translate(-385.39 -430.686)" fill="#a0616a"/>
  <path id="Path_649" data-name="Path 649" d="M606.852,710.272s-7.3-1.078-7.3.78c0,0-3.019,1.393-3.019,0s-2.768,14.631-.755,16.953,9.7-.223,11.574.929c1.51.929,12.833.7,13.336-1.626s.5-4.18-4.026-6.5S606.852,710.272,606.852,710.272Z" transform="translate(-382.906 -448.975)" fill="#3f3d56"/>
  <path id="Path_650" data-name="Path 650" d="M606.852,710.272s-7.3-1.078-7.3.78c0,0-3.019,1.393-3.019,0s-2.768,14.631-.755,16.953,9.7-.223,11.574.929c1.51.929,12.833.7,13.336-1.626s.5-4.18-4.026-6.5S606.852,710.272,606.852,710.272Z" transform="translate(-382.906 -448.975)" opacity="0.1"/>
  <path id="Path_651" data-name="Path 651" d="M568,672.6s3.523,13.934,2.013,20.437l10.568-2.787s-6.542-16.257-6.039-17.65S568,672.6,568,672.6Z" transform="translate(-369.473 -428.633)" fill="#a0616a"/>
  <path id="Path_652" data-name="Path 652" d="M573.019,709.644s6.542-3.251,8.555,0,8.052,16.257,4.529,17.65-14.594.929-15.1-4.18S570,710.573,570,710.573,572.516,711.5,573.019,709.644Z" transform="translate(-370.466 -448.031)" fill="#3f3d56"/>
  <path id="Path_653" data-name="Path 653" d="M536.454,455.31s-9.562,18.115,2.516,46.912c0,0,6.039,16.721,3.02,26.475s6.542,32.513,6.542,32.513l11.574-1.858s-4.529-30.655-3.019-33.907.5-38.087.5-38.087,13.587,23.688,11.574,42.732-2.516,29.727-2.516,29.727l13.084-.465a173.988,173.988,0,0,1,4.026-19.043c2.516-8.825,4.026-50.628-2.516-63.169l-1.51-15.328Z" transform="translate(-352.018 -312.604)" fill="#3f3d56"/>
  <ellipse id="Ellipse_123" data-name="Ellipse 123" cx="12.078" cy="11.147" rx="12.078" ry="11.147" transform="translate(188.463 60.025)" fill="#a0616a"/>
  <path id="Path_6806" data-name="Path 6806" d="M14,0c7.772.076,14.106,3.26,14.146,7.113s-6.227,6.915-14,6.84S.041,10.694,0,6.841,6.228-.074,14,0Z" transform="matrix(0.992, -0.127, 0.127, 0.992, 185.446, 59.299)" fill="#3f3d56"/>
  <path id="Path_654" data-name="Path 654" d="M571.607,282.81c-.664,3.4-6.039,6.558-12.973,7.376-7.579.9-14.161-1.361-14.9-5.053a3.493,3.493,0,0,0-.04,1.189c.5,3.813,7.216,6.168,14.936,5.258s13.547-4.747,13.014-8.565C571.637,282.945,571.622,282.9,571.607,282.81Z" transform="translate(-357.384 -220.226)" opacity="0.1"/>
  <path id="Path_655" data-name="Path 655" d="M475.369,340.454c-1.62-.618-3.482.339-4.569,1.607s-1.711,2.833-2.783,4.111a21.026,21.026,0,0,1-4.5,3.488,37.252,37.252,0,0,0-5.722,4.761,12.36,12.36,0,0,1-3.019,2.564,7.83,7.83,0,0,1-6.4,0,21.927,21.927,0,0,1-5.4-3.488q-7.428-5.978-14.654-12.23c-3.427-2.954-8.364-4.44-13.024-4.914a4.4,4.4,0,0,0-3.266.59,2.647,2.647,0,0,0-.871,1.942c-.106,2.42,2.124,4.436,4.529,5.416s5.073,1.277,7.493,2.206a14.589,14.589,0,0,1,5.853,4.125c1.691,1.988,3.739,3.614,5.349,5.653.735.929,1.384,1.909,2.089,2.856a63.928,63.928,0,0,0,5.576,6.28c2.33,2.392,5.178,4.984,8.651,4.742a12.039,12.039,0,0,0,4.091-1.287,68.027,68.027,0,0,0,11.746-6.294c2.088-1.51,3.976-3.251,6.165-4.645,2.093-1.324,4.484-2.322,6.18-4.073a8.015,8.015,0,0,0,2.043-7.524A9.05,9.05,0,0,0,475.369,340.454Z" transform="translate(-291.557 -248.868)" fill="#a0616a"/>
  <path id="Path_656" data-name="Path 656" d="M624.523,330.454c1.62-.618,3.482.339,4.569,1.607s1.711,2.833,2.783,4.111a21.016,21.016,0,0,0,4.5,3.488,37.253,37.253,0,0,1,5.722,4.761,12.361,12.361,0,0,0,3.02,2.564,7.83,7.83,0,0,0,6.4,0,21.931,21.931,0,0,0,5.4-3.488q7.448-6,14.674-12.23c3.427-2.954,8.364-4.44,13.024-4.914a4.4,4.4,0,0,1,3.266.59,2.646,2.646,0,0,1,.871,1.941c.106,2.42-2.124,4.436-4.529,5.416s-5.073,1.277-7.493,2.206a14.591,14.591,0,0,0-5.853,4.125c-1.691,1.988-3.739,3.614-5.349,5.653-.735.929-1.384,1.909-2.089,2.857a63.978,63.978,0,0,1-5.6,6.28c-2.33,2.392-5.178,4.984-8.651,4.742a12.041,12.041,0,0,1-4.091-1.287,68.028,68.028,0,0,1-11.745-6.294c-2.088-1.51-3.976-3.251-6.165-4.645-2.094-1.324-4.484-2.322-6.18-4.074a8.015,8.015,0,0,1-2.043-7.525A9.05,9.05,0,0,1,624.523,330.454Z" transform="translate(-394.674 -243.513)" fill="#a0616a"/>
  <path id="Path_657" data-name="Path 657" d="M559.2,344.859a97.089,97.089,0,0,0-8.555-4.645c-4.026-1.858-8.555-7.9-8.555-7.9S528,334.64,528,337.891s6.039,14.863,8.052,15.792,5.032.929,4.529,2.787,1.51,5.574,1.51,5.574,4.026,5.574,1.51,6.967-13.587,18.115-12.078,20.437,15.6,4.645,22.646,10.219,26.672-.465,26.672-1.858-2.013-4.18-2.013-4.18-.5-23.224,2.013-30.656.5-18.115-.5-19.508c0,0,6.039-9.754,3.523-12.541s-14.594-4.18-15.6-3.716l-.951,5.058a38.682,38.682,0,0,1-3.477,10.219c-.5,1.008-.941,1.909-1.107,2.364C562.22,346.252,559.2,344.859,559.2,344.859Z" transform="translate(-349.602 -243.955)" fill="#6c63ff"/>
  <path id="Path_658" data-name="Path 658" d="M733.235,237.682c22.943-3.716,49.6-3.066,78.354,0-5.833-30.526-6.1-60.429,0-89.612H733.235a233.432,233.432,0,0,0,0,89.612Z" transform="translate(-449.399 -148.07)" fill="#f2f2f2"/>
  <rect id="Rectangle_772" data-name="Rectangle 772" width="48.311" height="6.038" transform="translate(296.659 15.072)" fill="#6c63ff"/>
  <rect id="Rectangle_773" data-name="Rectangle 773" width="48.311" height="6.038" transform="translate(296.659 27.613)" fill="#6c63ff"/>
  <path id="Path_659" data-name="Path 659" d="M346.544,241.552c-22.938-3.716-49.6-3.066-78.354,0,5.833-30.526,6.1-60.429,0-89.612h78.354a233.434,233.434,0,0,1,0,89.612Z" transform="translate(-220.538 -150.142)" fill="#f2f2f2"/>
  <rect id="Rectangle_774" data-name="Rectangle 774" width="48.311" height="6.038" transform="translate(64.666 18.324)" fill="#6c63ff"/>
  <rect id="Rectangle_775" data-name="Rectangle 775" width="330.627" height="0.929" transform="translate(49.317 279.491)" fill="#3f3d56"/>
  <rect id="Rectangle_776" data-name="Rectangle 776" width="40.259" height="0.929" transform="translate(389.003 279.491)" fill="#3f3d56"/>
  <rect id="Rectangle_777" data-name="Rectangle 777" width="40.259" height="0.929" transform="translate(0 279.491)" fill="#3f3d56"/>
  <path id="Path_660" data-name="Path 660" d="M383.752,466.761a6.456,6.456,0,0,0-3.523-5.341l-1.58,2.884.045-3.493a7.527,7.527,0,0,0-2.325-.26,6.727,6.727,0,0,0-6.688,6.8,6.852,6.852,0,0,0,7.359,6.186,6.732,6.732,0,0,0,6.717-6.781Z" transform="translate(-270.951 -315.407)" fill="#f2f2f2"/>
  <path id="Path_661" data-name="Path 661" d="M382.834,472.61c-1.63.167-3.216.636-4.851.729a5.556,5.556,0,0,1-4.469-1.44,20.78,20.78,0,0,1-1.3-2.123,4.892,4.892,0,0,0-1.781-1.547,6.1,6.1,0,0,0,.837,6.849,7.376,7.376,0,0,0,7.037,2.307,6.809,6.809,0,0,0,5.331-4.827C383.367,472.568,383.1,472.587,382.834,472.61Z" transform="translate(-270.984 -319.522)" opacity="0.03"/>
  <path id="Path_662" data-name="Path 662" d="M730.447,609.077a7.548,7.548,0,0,0-6.748.613l2.124,2.573-3.387-1.565a6.4,6.4,0,0,0-1.263,1.816,6.327,6.327,0,0,0,3.712,8.526,7.277,7.277,0,0,0,9.244-3.412,6.324,6.324,0,0,0-3.681-8.537Z" transform="translate(-445.283 -394.669)" fill="#f2f2f2"/>
  <path id="Path_663" data-name="Path 663" d="M733.137,612.181c-.554,1.426-.785,2.945-1.409,4.347a5.094,5.094,0,0,1-3.357,3.079,23.676,23.676,0,0,1-2.637.158,5.291,5.291,0,0,0-2.285.8,6.929,6.929,0,0,0,2.843,2.048,7.363,7.363,0,0,0,9.063-2.577,6.19,6.19,0,0,0-1.928-8.571C733.323,611.716,733.228,611.953,733.137,612.181Z" transform="translate(-446.694 -396.231)" opacity="0.03"/>
  <path id="Path_664" data-name="Path 664" d="M680.105,174.366a7.563,7.563,0,0,0-6.778-.051l1.827,2.764-3.2-1.858a6.16,6.16,0,0,0-1.728,7.5,7.159,7.159,0,0,0,7.206,3.809,6.858,6.858,0,0,0,6.13-5.169,6.338,6.338,0,0,0-3.461-6.967Z" transform="translate(-419.952 -161.709)" fill="#f2f2f2"/>
  <path id="Path_665" data-name="Path 665" d="M682.2,178.15c-.7,1.361-1.112,2.852-1.887,4.18a5.222,5.222,0,0,1-3.679,2.745,23.955,23.955,0,0,1-2.642-.093,5.362,5.362,0,0,0-2.365.581,6.767,6.767,0,0,0,2.6,2.322,7.431,7.431,0,0,0,9.22-1.738,6.146,6.146,0,0,0-.877-8.648C682.445,177.732,682.319,177.927,682.2,178.15Z" transform="translate(-420.952 -163.83)" opacity="0.03"/>
</svg>
