<svg id="Group_925" data-name="Group 925" xmlns="http://www.w3.org/2000/svg" width="253.392" height="280.468" viewBox="0 0 253.392 280.468">
  <path id="Path_666" data-name="Path 666" d="M496.918,112.5H317.31A6.061,6.061,0,0,0,311,118.26V339.8a6.061,6.061,0,0,0,6.31,5.76H496.918a6.061,6.061,0,0,0,6.311-5.76V118.26a6.061,6.061,0,0,0-6.311-5.76Z" transform="translate(-311 -112.5)" fill="#f2f2f2"/>
  <path id="Path_667" data-name="Path 667" d="M330.834,128.5a4.216,4.216,0,0,0-4.335,4.082V343.3a4.216,4.216,0,0,0,4.335,4.082h168.51a4.216,4.216,0,0,0,4.335-4.082V132.582a4.216,4.216,0,0,0-4.335-4.082Z" transform="translate(-318.975 -121.411)" fill="#fff"/>
  <path id="Path_668" data-name="Path 668" d="M350.413,150.5a2.961,2.961,0,0,0-2.913,3v29a2.961,2.961,0,0,0,2.913,3H501.38a2.961,2.961,0,0,0,2.913-3v-29a2.961,2.961,0,0,0-2.913-3Z" transform="translate(-329.782 -133.663)" fill="#e6e6e6"/>
  <path id="Path_669" data-name="Path 669" d="M350.412,261.25a2.829,2.829,0,0,0-2.913,2.735v61.989a2.829,2.829,0,0,0,2.913,2.735H501.379a2.83,2.83,0,0,0,2.913-2.735V263.984a2.83,2.83,0,0,0-2.913-2.735Z" transform="translate(-329.782 -195.342)" fill="#e6e6e6"/>
  <rect id="Rectangle_778" data-name="Rectangle 778" width="119.415" height="6.203" transform="translate(36.407 20.935)" fill="#fff"/>
  <rect id="Rectangle_779" data-name="Rectangle 779" width="119.415" height="2.88" transform="translate(36.65 34.006)" fill="#fff"/>
  <rect id="Rectangle_780" data-name="Rectangle 780" width="119.415" height="2.88" transform="translate(36.65 39.102)" fill="#fff"/>
  <rect id="Rectangle_781" data-name="Rectangle 781" width="119.415" height="2.88" transform="translate(36.65 44.197)" fill="#fff"/>
  <path id="Path_670" data-name="Path 670" d="M447.937,347.944h54.955a1.778,1.778,0,0,0,1.634-1,1.513,1.513,0,0,0-.383-1.76l-35.172-32.1a1.893,1.893,0,0,0-2.5,0l-8.746,7.983a3.965,3.965,0,0,1-5.247,0l-27.4-25.005a1.893,1.893,0,0,0-2.5,0L369,344.966a1.514,1.514,0,0,0-.383,1.76,1.778,1.778,0,0,0,1.634,1h77.756Z" transform="translate(-340.579 -214.467)" fill="#fff"/>
  <ellipse id="Ellipse_125" data-name="Ellipse 125" cx="6.796" cy="6.203" rx="6.796" ry="6.203" transform="translate(35.193 74.326)" fill="#fff"/>
  <path id="Path_671" data-name="Path 671" d="M350.412,446.25a2.829,2.829,0,0,0-2.913,2.735v61.989a2.829,2.829,0,0,0,2.913,2.735H501.379a2.829,2.829,0,0,0,2.913-2.735V448.984a2.83,2.83,0,0,0-2.913-2.735Z" transform="translate(-329.782 -298.372)" fill="#e6e6e6"/>
  <path id="Path_672" data-name="Path 672" d="M447.937,532.944h54.955a1.779,1.779,0,0,0,1.634-1,1.514,1.514,0,0,0-.383-1.76l-35.172-32.1a1.894,1.894,0,0,0-2.5,0l-8.747,7.983a3.964,3.964,0,0,1-5.248,0l-27.395-25a1.894,1.894,0,0,0-2.5,0L369,529.966a1.514,1.514,0,0,0-.383,1.76,1.779,1.779,0,0,0,1.634,1h77.756Z" transform="translate(-340.579 -317.497)" fill="#fff"/>
  <ellipse id="Ellipse_126" data-name="Ellipse 126" cx="6.796" cy="6.203" rx="6.796" ry="6.203" transform="translate(35.193 156.296)" fill="#fff"/>
  <path id="Path_673" data-name="Path 673" d="M449.369,227.5A4.2,4.2,0,0,0,445,231.488V453.027a4.2,4.2,0,0,0,4.369,3.988H628.976a4.2,4.2,0,0,0,4.369-3.988V231.488a4.2,4.2,0,0,0-4.369-3.988Z" transform="translate(-379.953 -176.546)" fill="#e6e6e6"/>
  <path id="Path_674" data-name="Path 674" d="M460.334,241.5A4.216,4.216,0,0,0,456,245.582V456.3a4.216,4.216,0,0,0,4.335,4.082H628.845a4.216,4.216,0,0,0,4.335-4.082V245.582a4.216,4.216,0,0,0-4.335-4.082Z" transform="translate(-385.613 -184.343)" fill="#fff"/>
  <path id="Path_675" data-name="Path 675" d="M517.192,310.683a1.865,1.865,0,0,0-1.942,1.772v8.135a1.865,1.865,0,0,0,1.942,1.772h114.56a1.865,1.865,0,0,0,1.942-1.772v-8.134a1.865,1.865,0,0,0-1.942-1.772Z" transform="translate(-416.102 -222.872)" fill="#6c63ff"/>
  <path id="Path_676" data-name="Path 676" d="M517.235,371.439a.466.466,0,0,0-.485.443v3.176a.466.466,0,0,0,.485.443h116.5a.466.466,0,0,0,.485-.443v-3.176a.466.466,0,0,0-.485-.443Z" transform="translate(-416.874 -256.709)" fill="#ccc"/>
  <path id="Path_677" data-name="Path 677" d="M517.235,394.734a.466.466,0,0,0-.485.443v3.176a.466.466,0,0,0,.485.443h116.5a.466.466,0,0,0,.485-.443v-3.176a.466.466,0,0,0-.485-.443Z" transform="translate(-416.874 -269.682)" fill="#ccc"/>
  <path id="Path_678" data-name="Path 678" d="M517.235,418.029a.466.466,0,0,0-.485.443v3.175a.466.466,0,0,0,.485.443h116.5a.466.466,0,0,0,.485-.443v-3.175a.466.466,0,0,0-.485-.443Z" transform="translate(-416.874 -282.656)" fill="#ccc"/>
  <path id="Path_679" data-name="Path 679" d="M516.735,464.561a.466.466,0,0,0-.485.443v3.175a.466.466,0,0,0,.485.443h116.5a.466.466,0,0,0,.485-.443V465a.466.466,0,0,0-.485-.443Z" transform="translate(-416.616 -308.57)" fill="#ccc"/>
  <path id="Path_680" data-name="Path 680" d="M516.735,487.856a.466.466,0,0,0-.485.443v3.175a.466.466,0,0,0,.485.443h116.5a.466.466,0,0,0,.485-.443V488.3a.466.466,0,0,0-.485-.443Z" transform="translate(-416.616 -321.544)" fill="#ccc"/>
  <path id="Path_681" data-name="Path 681" d="M516.735,511.15a.466.466,0,0,0-.485.443v3.175a.466.466,0,0,0,.485.443h116.5a.466.466,0,0,0,.485-.443v-3.175a.466.466,0,0,0-.485-.443Z" transform="translate(-416.616 -334.517)" fill="#ccc"/>
  <path id="Path_682" data-name="Path 682" d="M516.735,534.561a.466.466,0,0,0-.485.443v3.175a.466.466,0,0,0,.485.443h116.5a.466.466,0,0,0,.485-.443V535a.466.466,0,0,0-.485-.443Z" transform="translate(-416.616 -347.555)" fill="#ccc"/>
  <path id="Path_683" data-name="Path 683" d="M516.735,557.855a.466.466,0,0,0-.485.443v3.175a.466.466,0,0,0,.485.443h116.5a.466.466,0,0,0,.485-.443V558.3a.466.466,0,0,0-.485-.443Z" transform="translate(-416.616 -360.528)" fill="#ccc"/>
  <path id="Path_684" data-name="Path 684" d="M516.735,581.15a.466.466,0,0,0-.485.443v3.176a.466.466,0,0,0,.485.443h116.5a.466.466,0,0,0,.485-.443v-3.176a.466.466,0,0,0-.485-.443Z" transform="translate(-416.616 -373.502)" fill="#ccc"/>
  <path id="Path_685" data-name="Path 685" d="M516.735,604.561a.466.466,0,0,0-.485.443v3.175a.466.466,0,0,0,.485.443h116.5a.466.466,0,0,0,.485-.443V605a.466.466,0,0,0-.485-.443Z" transform="translate(-416.616 -386.539)" fill="#ccc"/>
  <path id="Path_686" data-name="Path 686" d="M516.735,627.855a.466.466,0,0,0-.485.443v3.176a.466.466,0,0,0,.485.443h116.5a.466.466,0,0,0,.485-.443V628.3a.466.466,0,0,0-.485-.443Z" transform="translate(-416.616 -399.512)" fill="#ccc"/>
  <path id="Path_687" data-name="Path 687" d="M516.735,651.15a.466.466,0,0,0-.485.443v3.176a.466.466,0,0,0,.485.443h116.5a.466.466,0,0,0,.485-.443v-3.176a.466.466,0,0,0-.485-.443Z" transform="translate(-416.616 -412.486)" fill="#ccc"/>
  <ellipse id="Ellipse_127" data-name="Ellipse 127" cx="39" cy="36.5" rx="39" ry="36.5" transform="translate(120.273 139.315)" fill="#6c63ff"/>
  <path id="lock" d="M7.727,10.455v5.228H7.011a5.264,5.264,0,0,0-3.544,1.34A4.381,4.381,0,0,0,2,20.257V34.633a4.809,4.809,0,0,0,5.011,4.574H31.352a5.264,5.264,0,0,0,3.543-1.34,4.381,4.381,0,0,0,1.468-3.234V20.257A4.381,4.381,0,0,0,34.9,17.022a5.264,5.264,0,0,0-3.543-1.34h-.716V10.455a10.014,10.014,0,0,0-3.355-7.393,12.242,12.242,0,0,0-16.2,0A10.015,10.015,0,0,0,7.727,10.455Zm18.613,5.228V10.455a6.259,6.259,0,0,0-2.1-4.621,7.652,7.652,0,0,0-10.124,0,6.259,6.259,0,0,0-2.1,4.621v5.228Zm4.3,3.921h.716a.752.752,0,0,1,.506.191.626.626,0,0,1,.21.462V34.633a.626.626,0,0,1-.21.462.752.752,0,0,1-.506.191H7.011a.752.752,0,0,1-.506-.191.626.626,0,0,1-.21-.462V20.257a.626.626,0,0,1,.21-.462.752.752,0,0,1,.506-.191Z" transform="translate(139.769 155.665)" fill="#fff" fill-rule="evenodd"/>
</svg>
