<svg xmlns="http://www.w3.org/2000/svg" width="45.981" height="53.258" viewBox="0 0 45.981 53.258">
  <g id="location" transform="translate(-2 -0.5)">
    <path id="Path_774" data-name="Path 774" d="M15.248,20A5.748,5.748,0,1,0,9.5,14.248,5.748,5.748,0,0,0,15.248,20Z" transform="translate(9.743 10.393)" fill="#fff"/>
    <path id="Path_775" data-name="Path 775" d="M41.248,7.234A22.991,22.991,0,0,0,8.734,39.748l.064.063L21.156,52.17a5.423,5.423,0,0,0,7.669,0L41.248,39.748A22.991,22.991,0,0,0,41.248,7.234ZM11.172,9.672A19.542,19.542,0,0,1,38.809,37.309L26.387,49.731a1.974,1.974,0,0,1-2.792,0L11.231,37.368l0,0-.054-.054A19.542,19.542,0,0,1,11.172,9.672Z" transform="translate(0 0)" fill="#fff" fill-rule="evenodd"/>
  </g>
</svg>
