<svg xmlns="http://www.w3.org/2000/svg" width="46.858" height="34.167" viewBox="0 0 46.858 34.167">
  <path id="mail" d="M3.417,3A3.417,3.417,0,0,0,0,6.417V33.75a3.417,3.417,0,0,0,3.417,3.417H43.441a3.417,3.417,0,0,0,3.417-3.417V6.417A3.417,3.417,0,0,0,43.441,3ZM2.929,6.417a.488.488,0,0,1,.488-.488H43.441a.488.488,0,0,1,.488.488V8.079L23.7,21.746a.488.488,0,0,1-.546,0L2.929,8.079Zm0,5.2V33.75a.488.488,0,0,0,.488.488H43.441a.488.488,0,0,0,.488-.488V11.614L25.342,24.173a3.416,3.416,0,0,1-3.826,0Z" transform="translate(0 -3)" fill="#fff" fill-rule="evenodd"/>
</svg>
