<svg xmlns="http://www.w3.org/2000/svg" width="36.562" height="50.272" viewBox="0 0 36.562 50.272">
  <g id="device-mobile" transform="translate(-4 -1)">
    <path id="Path_776" data-name="Path 776" d="M10.25,6.214A1.714,1.714,0,0,1,11.964,4.5h4.57a1.714,1.714,0,0,1,0,3.428h-4.57A1.714,1.714,0,0,1,10.25,6.214Z" transform="translate(8.032 4.498)" fill="#fff"/>
    <path id="Path_777" data-name="Path 777" d="M13.285,22.07A2.285,2.285,0,1,0,11,19.785,2.285,2.285,0,0,0,13.285,22.07Z" transform="translate(8.996 21.204)" fill="#fff"/>
    <path id="Path_778" data-name="Path 778" d="M4,5A4,4,0,0,1,8,1H36.563a4,4,0,0,1,4,4V47.274a4,4,0,0,1-4,4H8a4,4,0,0,1-4-4Zm4-.571A.571.571,0,0,0,7.428,5V47.274A.571.571,0,0,0,8,47.845H36.563a.571.571,0,0,0,.571-.571V5a.571.571,0,0,0-.571-.571Z" fill="#fff" fill-rule="evenodd"/>
  </g>
</svg>
