<svg xmlns="http://www.w3.org/2000/svg" xmlns:xlink="http://www.w3.org/1999/xlink" width="504" height="881.219" viewBox="0 0 504 881.219">
  <defs>
    <filter id="Rectangle_929" x="21" y="694.219" width="462" height="146" filterUnits="userSpaceOnUse">
      <feOffset dy="-5" input="SourceAlpha"/>
      <feGaussianBlur stdDeviation="8" result="blur"/>
      <feFlood flood-opacity="0.161"/>
      <feComposite operator="in" in2="blur"/>
      <feComposite in="SourceGraphic"/>
    </filter>
    <filter id="Rectangle_931" x="21" y="694.219" width="462" height="146" filterUnits="userSpaceOnUse">
      <feOffset dy="-5" input="SourceAlpha"/>
      <feGaussianBlur stdDeviation="8" result="blur-2"/>
      <feFlood flood-opacity="0.161"/>
      <feComposite operator="in" in2="blur-2"/>
      <feComposite in="SourceGraphic"/>
    </filter>
  </defs>
  <g id="Group_1060" data-name="Group 1060" transform="translate(-4130 1752.219)">
    <g id="Rectangle_880" data-name="Rectangle 880" transform="translate(4169 -1733)" fill="#eee" stroke="#707070" stroke-width="1">
      <rect width="427" height="801" rx="23" stroke="none"/>
      <rect x="0.5" y="0.5" width="426" height="800" rx="22.5" fill="none"/>
    </g>
    <g id="Group_1005" data-name="Group 1005" transform="translate(4208 -1551.5)">
      <line id="Line_38" data-name="Line 38" y2="523" transform="translate(17.5)" fill="none" stroke="rgba(0,0,0,0.25)" stroke-linecap="round" stroke-width="7"/>
      <circle id="Ellipse_171" data-name="Ellipse 171" cx="13" cy="13" r="13" transform="translate(4 38.5)" fill="#2b44ff"/>
      <circle id="Ellipse_172" data-name="Ellipse 172" cx="17.5" cy="17.5" r="17.5" transform="translate(0 34.5)" fill="#2b44ff"/>
      <g id="Group_472" data-name="Group 472" transform="translate(0 213.5)">
        <circle id="Ellipse_173" data-name="Ellipse 173" cx="17.5" cy="17.5" r="17.5" fill="#2b44ff"/>
      </g>
      <g id="Group_473" data-name="Group 473" transform="translate(0 410.5)">
        <circle id="Ellipse_173-2" data-name="Ellipse 173" cx="17.5" cy="17.5" r="17.5" fill="#4d4d4d"/>
        <path id="lock" d="M5.247,6.992V5.681a4.5,4.5,0,1,1,8.988,0V6.992h.374a1.872,1.872,0,0,1,1.872,1.872v5.992a1.872,1.872,0,0,1-1.872,1.872H4.872A1.872,1.872,0,0,1,3,14.856V8.864A1.872,1.872,0,0,1,4.872,6.992ZM6.37,5.681a3.375,3.375,0,1,1,6.741,0V6.992H6.37ZM4.123,8.864a.749.749,0,0,1,.749-.749h9.737a.749.749,0,0,1,.749.749v5.992a.749.749,0,0,1-.749.749H4.872a.749.749,0,0,1-.749-.749Z" transform="translate(8 8.891)" fill="#fff" fill-rule="evenodd"/>
      </g>
    </g>
    <g transform="matrix(1, 0, 0, 1, 4130, -1752.22)" filter="url(#Rectangle_929)">
      <path id="Rectangle_929-2" data-name="Rectangle 929" d="M20,0H394a20,20,0,0,1,20,20V98a0,0,0,0,1,0,0H0a0,0,0,0,1,0,0V20A20,20,0,0,1,20,0Z" transform="translate(45 723.22)" fill="#fff"/>
    </g>
    <g id="Group_1006" data-name="Group 1006" transform="translate(4234.51 -989.001)">
      <path id="home" d="M11.754,2.622a1.635,1.635,0,0,1,2.116,0L22.047,9.56a1.635,1.635,0,0,1,.577,1.247V21.058a1.635,1.635,0,0,1-1.635,1.635H14.72a.818.818,0,0,1-.818-.818V15.062h-2.18v6.814a.818.818,0,0,1-.818.818H4.635A1.635,1.635,0,0,1,3,21.058V10.807A1.635,1.635,0,0,1,3.577,9.56Zm1.058,1.247L4.635,10.807V21.058h5.451V14.244a.818.818,0,0,1,.818-.818H14.72a.818.818,0,0,1,.818.818v6.814h5.451V10.807Z" transform="translate(-3 -2.234)" fill-rule="evenodd"/>
      <path id="Path_5944" data-name="Path 5944" d="M9.533,1.918a4.851,4.851,0,0,0-5.115,4.8A4.365,4.365,0,0,0,5.676,9.659l.274.324c.285.338.6.711.861,1.084A4.409,4.409,0,0,1,7.6,12.972a.959.959,0,0,1-1.9.27,2.521,2.521,0,0,0-.473-1.083,11.118,11.118,0,0,0-.693-.87c-.107-.128-.221-.262-.343-.409A6.245,6.245,0,0,1,2.5,6.713,6.767,6.767,0,0,1,9.533,0a6.767,6.767,0,0,1,7.033,6.713,6.245,6.245,0,0,1-1.7,4.167c-.121.147-.235.281-.343.408-.265.313-.49.579-.692.871a2.505,2.505,0,0,0-.473,1.083.959.959,0,0,1-1.9-.271,4.41,4.41,0,0,1,.794-1.9c.26-.373.575-.747.861-1.084.1-.113.188-.221.272-.324a4.361,4.361,0,0,0,1.26-2.946,4.851,4.851,0,0,0-5.115-4.8ZM6.975,19.5a.959.959,0,0,1,.959-.959h3.2a.959.959,0,1,1,0,1.918h-3.2A.959.959,0,0,1,6.975,19.5Zm-.32-4.156a.959.959,0,1,0,0,1.918H12.41a.959.959,0,1,0,0-1.918Z" transform="translate(92.5 0.001)" fill="#2b44ff" fill-rule="evenodd"/>
      <path id="file" d="M4.818,2.364a.455.455,0,0,0-.455.455V19.182a.455.455,0,0,0,.455.455H17.545A.455.455,0,0,0,18,19.182V7.818H14.364A1.818,1.818,0,0,1,12.545,6V2.364Zm9.091,0V6a.455.455,0,0,0,.455.455H18a.455.455,0,0,0-.133-.305L14.214,2.5A.455.455,0,0,0,13.909,2.364ZM3,2.818A1.818,1.818,0,0,1,4.818,1h9.075a1.818,1.818,0,0,1,1.286.533l3.653,3.653a1.818,1.818,0,0,1,.533,1.286V19.182A1.818,1.818,0,0,1,17.545,21H4.818A1.818,1.818,0,0,1,3,19.182Z" transform="translate(181.175 -0.999)" fill-rule="evenodd"/>
      <path id="person" d="M12.473,2.5A5.79,5.79,0,0,0,9.215,13.075,9.478,9.478,0,0,0,3,21.687a.789.789,0,1,0,1.578.047,7.895,7.895,0,0,1,15.782,0,.789.789,0,1,0,1.578-.047,9.478,9.478,0,0,0-6.211-8.612A5.79,5.79,0,0,0,12.473,2.5ZM8.263,8.289a4.21,4.21,0,1,1,4.21,4.211A4.21,4.21,0,0,1,8.263,8.289Z" transform="translate(272.486 -2.499)" fill-rule="evenodd"/>
    </g>
    <text id="Roadmap" transform="translate(4212 -1647)" fill="#474747" font-size="36" font-family="Gilroy-ExtraBold, Gilroy" font-weight="800"><tspan x="0" y="0">Roadmap</tspan></text>
    <text id="Pre-approval" transform="translate(4263 -1530)" fill="#474747" font-size="25" font-family="Gilroy-ExtraBold, Gilroy" font-weight="800"><tspan x="0" y="0">Pre-approval</tspan></text>
    <text id="Getting_Ready" data-name="Getting Ready" transform="translate(4263 -1338)" fill="#474747" font-size="25" font-family="Gilroy-ExtraBold, Gilroy" font-weight="800"><tspan x="0" y="0">Getting Ready</tspan></text>
    <text id="Get_a_Real-Estate_Agent" data-name="Get a Real-Estate Agent" transform="translate(4263 -1129)" fill="#474747" font-size="25" font-family="Gilroy-ExtraBold, Gilroy" font-weight="800"><tspan x="0" y="0">Get a Real-Estate Agent</tspan></text>
    <text id="Lorem_ipsum_sit_amet._Ruko_zara_sabar_karo" data-name="Lorem ipsum sit amet.
Ruko zara sabar karo" transform="translate(4263 -1432)" fill="#474747" font-size="20" font-family="SegoeUI-Bold, Segoe UI" font-weight="700"><tspan x="0" y="0">Lorem ipsum sit amet.</tspan><tspan x="0" y="27">Ruko zara sabar karo</tspan></text>
    <text id="Lorem_ipsum_sit_amet._Ruko_zara_sabar_karo-2" data-name="Lorem ipsum sit amet.
Ruko zara sabar karo" transform="translate(4263 -1296)" fill="#474747" font-size="20" font-family="SegoeUI-Bold, Segoe UI" font-weight="700"><tspan x="0" y="0">Lorem ipsum sit amet.</tspan><tspan x="0" y="27">Ruko zara sabar karo</tspan></text>
    <text id="Lorem_ipsum_sit_amet._Ruko_zara_sabar_karo-3" data-name="Lorem ipsum sit amet.
Ruko zara sabar karo" transform="translate(4263 -1086)" fill="#474747" font-size="20" font-family="SegoeUI-Bold, Segoe UI" font-weight="700"><tspan x="0" y="0">Lorem ipsum sit amet.</tspan><tspan x="0" y="27">Ruko zara sabar karo</tspan></text>
    <g id="Group_1007" data-name="Group 1007" transform="translate(4263 -1510.272)">
      <rect id="Rectangle_877" data-name="Rectangle 877" width="109" height="30" rx="5" transform="translate(0 0.272)" fill="rgba(0,0,0,0.25)"/>
      <text id="_30_Sep_2020" data-name="30 Sep 2020" transform="translate(11 20.272)" fill="#fff" font-size="15" font-family="Gilroy-ExtraBold, Gilroy" font-weight="800"><tspan x="0" y="0">30 Sep 2020</tspan></text>
    </g>
    <g id="Group_1008" data-name="Group 1008" transform="translate(4263 -1230.948)">
      <rect id="Rectangle_878" data-name="Rectangle 878" width="147" height="41" rx="8" transform="translate(0 -0.052)" fill="#2b44ff"/>
      <text id="Get_Started_" data-name="Get Started!" transform="translate(73 24.948)" fill="#fff" font-size="13" font-family="Gilroy-ExtraBold, Gilroy" font-weight="800"><tspan x="-37.557" y="0">Get Started!</tspan></text>
    </g>
    <g id="Group_1010" data-name="Group 1010" transform="translate(4208 -1551.5)">
      <line id="Line_38-2" data-name="Line 38" y2="523" transform="translate(17.5)" fill="none" stroke="rgba(0,0,0,0.25)" stroke-linecap="round" stroke-width="7"/>
      <circle id="Ellipse_171-2" data-name="Ellipse 171" cx="13" cy="13" r="13" transform="translate(4 38.5)" fill="#2b44ff"/>
      <circle id="Ellipse_172-2" data-name="Ellipse 172" cx="17.5" cy="17.5" r="17.5" transform="translate(0 34.5)" fill="#2b44ff"/>
      <g id="Group_472-2" data-name="Group 472" transform="translate(0 213.5)">
        <circle id="Ellipse_173-3" data-name="Ellipse 173" cx="17.5" cy="17.5" r="17.5" fill="#2b44ff"/>
      </g>
      <g id="Group_473-2" data-name="Group 473" transform="translate(0 410.5)">
        <circle id="Ellipse_173-4" data-name="Ellipse 173" cx="17.5" cy="17.5" r="17.5" fill="#4d4d4d"/>
        <path id="lock-2" data-name="lock" d="M5.247,6.992V5.681a4.5,4.5,0,1,1,8.988,0V6.992h.374a1.872,1.872,0,0,1,1.872,1.872v5.992a1.872,1.872,0,0,1-1.872,1.872H4.872A1.872,1.872,0,0,1,3,14.856V8.864A1.872,1.872,0,0,1,4.872,6.992ZM6.37,5.681a3.375,3.375,0,1,1,6.741,0V6.992H6.37ZM4.123,8.864a.749.749,0,0,1,.749-.749h9.737a.749.749,0,0,1,.749.749v5.992a.749.749,0,0,1-.749.749H4.872a.749.749,0,0,1-.749-.749Z" transform="translate(8 8.891)" fill="#fff" fill-rule="evenodd"/>
      </g>
    </g>
    <g transform="matrix(1, 0, 0, 1, 4130, -1752.22)" filter="url(#Rectangle_931)">
      <path id="Rectangle_931-2" data-name="Rectangle 931" d="M20,0H394a20,20,0,0,1,20,20V98a0,0,0,0,1,0,0H0a0,0,0,0,1,0,0V20A20,20,0,0,1,20,0Z" transform="translate(45 723.22)" fill="#fff"/>
    </g>
    <g id="Group_1011" data-name="Group 1011" transform="translate(4234.51 -989.001)">
      <path id="home-2" data-name="home" d="M11.754,2.622a1.635,1.635,0,0,1,2.116,0L22.047,9.56a1.635,1.635,0,0,1,.577,1.247V21.058a1.635,1.635,0,0,1-1.635,1.635H14.72a.818.818,0,0,1-.818-.818V15.062h-2.18v6.814a.818.818,0,0,1-.818.818H4.635A1.635,1.635,0,0,1,3,21.058V10.807A1.635,1.635,0,0,1,3.577,9.56Zm1.058,1.247L4.635,10.807V21.058h5.451V14.244a.818.818,0,0,1,.818-.818H14.72a.818.818,0,0,1,.818.818v6.814h5.451V10.807Z" transform="translate(-3 -2.234)" fill-rule="evenodd"/>
      <path id="Path_5944-2" data-name="Path 5944" d="M9.533,1.918a4.851,4.851,0,0,0-5.115,4.8A4.365,4.365,0,0,0,5.676,9.659l.274.324c.285.338.6.711.861,1.084A4.409,4.409,0,0,1,7.6,12.972a.959.959,0,0,1-1.9.27,2.521,2.521,0,0,0-.473-1.083,11.118,11.118,0,0,0-.693-.87c-.107-.128-.221-.262-.343-.409A6.245,6.245,0,0,1,2.5,6.713,6.767,6.767,0,0,1,9.533,0a6.767,6.767,0,0,1,7.033,6.713,6.245,6.245,0,0,1-1.7,4.167c-.121.147-.235.281-.343.408-.265.313-.49.579-.692.871a2.505,2.505,0,0,0-.473,1.083.959.959,0,0,1-1.9-.271,4.41,4.41,0,0,1,.794-1.9c.26-.373.575-.747.861-1.084.1-.113.188-.221.272-.324a4.361,4.361,0,0,0,1.26-2.946,4.851,4.851,0,0,0-5.115-4.8ZM6.975,19.5a.959.959,0,0,1,.959-.959h3.2a.959.959,0,1,1,0,1.918h-3.2A.959.959,0,0,1,6.975,19.5Zm-.32-4.156a.959.959,0,1,0,0,1.918H12.41a.959.959,0,1,0,0-1.918Z" transform="translate(92.5 0.001)" fill="#2b44ff" fill-rule="evenodd"/>
      <path id="file-2" data-name="file" d="M4.818,2.364a.455.455,0,0,0-.455.455V19.182a.455.455,0,0,0,.455.455H17.545A.455.455,0,0,0,18,19.182V7.818H14.364A1.818,1.818,0,0,1,12.545,6V2.364Zm9.091,0V6a.455.455,0,0,0,.455.455H18a.455.455,0,0,0-.133-.305L14.214,2.5A.455.455,0,0,0,13.909,2.364ZM3,2.818A1.818,1.818,0,0,1,4.818,1h9.075a1.818,1.818,0,0,1,1.286.533l3.653,3.653a1.818,1.818,0,0,1,.533,1.286V19.182A1.818,1.818,0,0,1,17.545,21H4.818A1.818,1.818,0,0,1,3,19.182Z" transform="translate(181.175 -0.999)" fill-rule="evenodd"/>
      <path id="person-2" data-name="person" d="M12.473,2.5A5.79,5.79,0,0,0,9.215,13.075,9.478,9.478,0,0,0,3,21.687a.789.789,0,1,0,1.578.047,7.895,7.895,0,0,1,15.782,0,.789.789,0,1,0,1.578-.047,9.478,9.478,0,0,0-6.211-8.612A5.79,5.79,0,0,0,12.473,2.5ZM8.263,8.289a4.21,4.21,0,1,1,4.21,4.211A4.21,4.21,0,0,1,8.263,8.289Z" transform="translate(272.486 -2.499)" fill-rule="evenodd"/>
    </g>
    <text id="Roadmap-2" data-name="Roadmap" transform="translate(4212 -1647)" fill="#474747" font-size="36" font-family="Gilroy-ExtraBold, Gilroy" font-weight="800"><tspan x="0" y="0">Roadmap</tspan></text>
    <text id="Pre-approval-2" data-name="Pre-approval" transform="translate(4263 -1530)" fill="#474747" font-size="25" font-family="Gilroy-ExtraBold, Gilroy" font-weight="800"><tspan x="0" y="0">Pre-approval</tspan></text>
    <text id="Getting_Ready-2" data-name="Getting Ready" transform="translate(4263 -1338)" fill="#474747" font-size="25" font-family="Gilroy-ExtraBold, Gilroy" font-weight="800"><tspan x="0" y="0">Getting Ready</tspan></text>
    <text id="Get_a_Real-Estate_Agent-2" data-name="Get a Real-Estate Agent" transform="translate(4263 -1129)" fill="#474747" font-size="25" font-family="Gilroy-ExtraBold, Gilroy" font-weight="800"><tspan x="0" y="0">Get a Real-Estate Agent</tspan></text>
    <text id="Lorem_ipsum_sit_amet._Ruko_zara_sabar_karo-4" data-name="Lorem ipsum sit amet.
Ruko zara sabar karo" transform="translate(4263 -1432)" fill="#474747" font-size="20" font-family="SegoeUI-Bold, Segoe UI" font-weight="700"><tspan x="0" y="0">Lorem ipsum sit amet.</tspan><tspan x="0" y="27">Ruko zara sabar karo</tspan></text>
    <text id="Lorem_ipsum_sit_amet._Ruko_zara_sabar_karo-5" data-name="Lorem ipsum sit amet.
Ruko zara sabar karo" transform="translate(4263 -1296)" fill="#474747" font-size="20" font-family="SegoeUI-Bold, Segoe UI" font-weight="700"><tspan x="0" y="0">Lorem ipsum sit amet.</tspan><tspan x="0" y="27">Ruko zara sabar karo</tspan></text>
    <text id="Lorem_ipsum_sit_amet._Ruko_zara_sabar_karo-6" data-name="Lorem ipsum sit amet.
Ruko zara sabar karo" transform="translate(4263 -1086)" fill="#474747" font-size="20" font-family="SegoeUI-Bold, Segoe UI" font-weight="700"><tspan x="0" y="0">Lorem ipsum sit amet.</tspan><tspan x="0" y="27">Ruko zara sabar karo</tspan></text>
    <g id="Group_1012" data-name="Group 1012" transform="translate(4263 -1510.272)">
      <rect id="Rectangle_877-2" data-name="Rectangle 877" width="109" height="30" rx="5" transform="translate(0 0.272)" fill="rgba(0,0,0,0.25)"/>
      <text id="_30_Sep_2020-2" data-name="30 Sep 2020" transform="translate(11 20.272)" fill="#fff" font-size="15" font-family="Gilroy-ExtraBold, Gilroy" font-weight="800"><tspan x="0" y="0">30 Sep 2020</tspan></text>
    </g>
    <g id="Group_1013" data-name="Group 1013" transform="translate(4263 -1230.948)">
      <rect id="Rectangle_878-2" data-name="Rectangle 878" width="147" height="41" rx="8" transform="translate(0 -0.052)" fill="#2b44ff"/>
      <text id="Get_Started_2" data-name="Get Started!" transform="translate(73 24.948)" fill="#fff" font-size="13" font-family="Gilroy-ExtraBold, Gilroy" font-weight="800"><tspan x="-37.557" y="0">Get Started!</tspan></text>
    </g>
    <g id="Group_1014" data-name="Group 1014" transform="translate(4155.862 -1752.219)">
      <g id="Group_933" data-name="Group 933" transform="translate(0 0)">
        <path id="Path_6819" data-name="Path 6819" d="M8922.987,7799.907c-.924-.044-1.913-.067-2.885-.067H8579.421c-.99,0-1.917,0-2.863.067h-.044c-29.493,1.368-53.044,23.106-53.044,49.673V8574.9c0,26.107,22.759,47.543,51.547,49.544.529.043,1.037.085,1.541.085.946.022,1.914.065,2.905.065h340.686c.968,0,1.915-.043,2.883-.065.528-.042,1.035-.042,1.561-.085,28.835-2.045,51.524-23.479,51.524-49.544V7849.58C8976.116,7823.014,8952.525,7801.232,8922.987,7799.907Zm48.377,774.95c0,23.564-20.756,43.522-47.146,45.391-.482.043-.946.086-1.453.086-.9.045-1.779.089-2.662.089H8579.421c-.881,0-1.783-.044-2.664-.089-.464,0-.946-.043-1.409-.086-26.457-1.868-47.189-21.783-47.189-45.391V7849.58c0-24.2,21.263-44.151,48.509-45.435h.178c.836-.044,1.738-.044,2.618-.044h340.686c.879,0,1.76.044,2.616.044h.089c27.248,1.283,48.555,21.239,48.555,45.435v725.277Z" transform="translate(-8523.47 -7785.84)" fill="#404040"/>
        <g id="Group_1009" data-name="Group 1009" transform="translate(3)">
          <path id="Path_6820" data-name="Path 6820" d="M8731.285,7841.3v733.461a56.091,56.091,0,0,1-1.545,13.126,53.917,53.917,0,0,1-3.251,9.472c-.269.641-.566,1.232-.868,1.8-.475.881-.931,1.76-1.4,2.618a45.529,45.529,0,0,1-4.717,6.615,57.526,57.526,0,0,0,5.05-23.782v-8.468c0-.5.028-1.009.028-1.514V7841.212c0-.5,0-1.055-.028-1.56v-8.242a58.063,58.063,0,0,0-5.05-23.963C8726.755,7815.868,8731.285,7827.913,8731.285,7841.3Z" transform="translate(-8284.672 -7781.493)" fill="#fff"/>
          <path id="Path_6821" data-name="Path 6821" d="M8922.916,7803.754h-.219c-.762-.044-1.52-.044-2.28-.044H8574.923c-.8,0-1.561,0-2.324.044l-.243.044h-.087c-24.981,1.247-44.508,19.435-44.508,41.471v729.378c0,21.534,19.062,39.721,43.458,41.429a10.036,10.036,0,0,0,1.137.043h.156c.8.042,1.651.042,2.458.042h345.5c.8,0,1.6-.042,2.407-.042h.134a10.957,10.957,0,0,0,1.207-.088c24.351-1.663,43.392-19.85,43.392-41.426V7845.269C8967.605,7823.146,8947.984,7804.91,8922.916,7803.754ZM8955.06,8574.6a28.369,28.369,0,0,1-7.162,18.537,6.451,6.451,0,0,1-.761.787c-.76.784-1.562,1.575-2.411,2.338-.758.616-1.521,1.247-2.32,1.881a33.955,33.955,0,0,1-3.238,2.077c-1.116.632-2.254,1.2-3.46,1.75-.558.263-1.183.5-1.781.765a16.383,16.383,0,0,1-1.854.611,30.232,30.232,0,0,1-3.883,1.006,39.266,39.266,0,0,1-4.936.677c-.134,0-.287.022-.469.022h-.535a1.539,1.539,0,0,0-.427.043H8574.075c-.292,0-.626-.043-.919-.043h-.512c-.133,0-.289-.022-.466-.022-17.88-1.269-31.852-14.561-31.852-30.387V7845.269c0-16.069,14.173-29.338,32.317-30.433h.291l.469-.042c.558-.022,1.046-.022,1.519-.022h345.451c.469,0,.979,0,1.5.022h.289a.925.925,0,0,1,.335.042,7.638,7.638,0,0,1,1,.089,1.941,1.941,0,0,1,.471.044c.294.042.625.042.894.087.381.044.718.09,1.094.133H8926a7.575,7.575,0,0,1,1.517.241.717.717,0,0,0,.293.042c.424.087.845.174,1.228.24.624.131,1.225.307,1.807.461.464.13.935.259,1.406.435.535.155,1,.329,1.516.526,1.006.393,1.942.809,2.95,1.267.847.419,1.718.832,2.521,1.334.177.108.379.2.559.327.33.2.668.414,1,.634a8.887,8.887,0,0,1,1.27.875,26.953,26.953,0,0,1,2.369,1.882c.378.326.761.655,1.137.982.378.351.712.721,1.049,1.05a32.038,32.038,0,0,1,3.687,4.591c.531.784,1,1.661,1.472,2.49.422.875.866,1.729,1.228,2.646.2.461.331.874.486,1.334a21.689,21.689,0,0,1,.8,3.038,10.342,10.342,0,0,1,.223,1.2,26.38,26.38,0,0,1,.382,4.439V8574.6Z" transform="translate(-8524.385 -7783.656)"/>
          <path id="Path_6822" data-name="Path 6822" d="M8574.9,7815.431c-.094-.157-.157-.3-.236-.458a1.374,1.374,0,0,0-.065-.173C8574.71,7815.037,8574.807,7815.21,8574.9,7815.431Z" transform="translate(-8465.236 -7777.248)"/>
          <path id="Path_6823" data-name="Path 6823" d="M8678.106,7814.82c-.049.048-.049.079-.079.174a2.483,2.483,0,0,1-.237.458C8677.933,7815.2,8678,7815.025,8678.106,7814.82Z" transform="translate(-8340.862 -7777.236)"/>
          <path id="Path_6824" data-name="Path 6824" d="M8873.873,7808.771c-3.488.077-6.351,1.5-6.705,3.28a1.209,1.209,0,0,1-.06.474,7.824,7.824,0,0,1-.409,1.957,1.849,1.849,0,0,1-.251.662c-.109.268-.218.537-.327.789a6.116,6.116,0,0,0-.358.727c-.054.047-.054.078-.109.173-.082.063-.082.126-.138.174,0,.063-.054.094-.054.157-.055.095-.109.158-.164.238a1.317,1.317,0,0,1-.194.268,3.331,3.331,0,0,1-.464.646,6.9,6.9,0,0,1-.527.6c0,.032-.056.047-.056.079s0,.03-.054.03a4.854,4.854,0,0,0-.468.521,2.361,2.361,0,0,1-.464.442c-.058.032-.058.095-.167.158-.053.095-.191.143-.251.2-.109.095-.217.221-.326.3-.082.032-.082.063-.082.095-.056.031-.056.063-.108.126s-.167.11-.224.174a.793.793,0,0,1-.3.221,2.693,2.693,0,0,0-.221.173c-.083.033-.083.064-.137.095a2.847,2.847,0,0,1-.274.207,1.039,1.039,0,0,1-.25.156.824.824,0,0,1-.274.206c0,.031-.08.031-.08.063s-.055.031-.055.031a3.752,3.752,0,0,0-.331.237c-.058.032-.058.064-.137.095a1.631,1.631,0,0,1-.386.237c-.191.095-.358.2-.549.3a3.036,3.036,0,0,1-.524.3v.031a3.342,3.342,0,0,1-.329.173,4.525,4.525,0,0,1-.413.222c-.14.063-.248.109-.357.172-.245.127-.466.253-.714.363a3.893,3.893,0,0,1-.521.269c-.108.063-.22.095-.329.158a7.345,7.345,0,0,0-.824.362c-.25.112-.523.206-.828.332a4.5,4.5,0,0,0-.464.173,2.652,2.652,0,0,1-.579.222c-.163.046-.361.142-.578.2-.053.032-.19.063-.246.095-.359.08-.63.206-.99.3-.22.079-.521.174-.738.236-.361.1-.664.206-1.02.269-.114.032-.224.1-.332.125-.053,0-.053.032-.053.032-.246.063-.469.11-.718.174-.164.063-.409.127-.63.189a4.843,4.843,0,0,0-.574.142c-.138.032-.193.032-.361.063a3,3,0,0,1-.3.063c-.521.111-1.043.205-1.569.3-.466.095-.983.175-1.453.237a15.571,15.571,0,0,1-1.651.236c-1.1.157-2.2.284-3.326.363l-1.4.094a.812.812,0,0,0-.276.032c-.412.032-.828.032-1.235.032-.47.03-.936.03-1.4.03H8610.946c-.474,0-.937-.03-1.405-.03-.408,0-.824-.032-1.234-.032a1.076,1.076,0,0,1-.3-.032l-1.4-.094c-1.1-.079-2.205-.206-3.329-.363-.523-.047-1.043-.142-1.623-.236-.47-.095-.99-.175-1.454-.237-.526-.095-1.044-.205-1.569-.3-.136-.031-.193-.031-.3-.062s-.25-.031-.359-.063c-.163-.032-.409-.095-.577-.142a2.627,2.627,0,0,1-.63-.189c-.248-.063-.466-.11-.718-.174-.053,0-.053,0-.053-.032a2.29,2.29,0,0,1-.356-.125c-.333-.095-.633-.173-.994-.269-.216-.062-.517-.157-.739-.236-.354-.095-.658-.221-1.016-.3-.059-.031-.167-.062-.221-.095-.161-.062-.412-.125-.576-.2-.192-.063-.413-.158-.581-.222a2.873,2.873,0,0,1-.463-.173c-.3-.126-.553-.22-.826-.332-.3-.127-.577-.236-.826-.362-.109-.063-.219-.095-.354-.158-.167-.078-.334-.173-.521-.269-.221-.11-.471-.236-.69-.363-.135-.062-.246-.109-.354-.172s-.307-.158-.415-.222c-.109-.046-.221-.11-.357-.173a2.821,2.821,0,0,1-.272-.174,6.71,6.71,0,0,1-.773-.489,1.791,1.791,0,0,0-.41-.235c-.053-.032-.111-.064-.111-.1a2.163,2.163,0,0,0-.357-.237c-.054,0-.054-.031-.054-.031,0-.031-.059-.031-.059-.063-.108-.063-.217-.158-.3-.2a1,1,0,0,1-.216-.158,3.21,3.21,0,0,0-.307-.205c-.055-.031-.055-.064-.108-.095a2.334,2.334,0,0,0-.221-.175c-.134-.062-.191-.157-.3-.221-.056-.062-.167-.109-.223-.173-.082-.031-.082-.063-.138-.127a.089.089,0,0,1-.054-.094,4.083,4.083,0,0,1-.354-.3,2.058,2.058,0,0,1-.223-.205c-.109-.032-.168-.095-.168-.127-.187-.142-.3-.3-.464-.442a2.566,2.566,0,0,1-.468-.521c0-.03,0-.03-.084-.03-.053-.032-.053-.047-.053-.079a6.145,6.145,0,0,0-.524-.6,4.951,4.951,0,0,1-.466-.646c-.054-.079-.109-.175-.165-.268a2.169,2.169,0,0,0-.192-.238c-.054-.031-.054-.094-.054-.157-.059-.048-.059-.11-.111-.174s-.056-.126-.109-.173a4.967,4.967,0,0,1-.356-.727c-.111-.269-.221-.521-.356-.789a2.68,2.68,0,0,1-.221-.662,6.951,6.951,0,0,1-.416-1.957c0-.141-.055-.3-.055-.474-.356-1.782-3.212-3.2-6.706-3.28Z" transform="translate(-8499.254 -7780.733)"/>
          <path id="Path_6825" data-name="Path 6825" d="M8585.449,7821.662a6.9,6.9,0,0,0,.8.031h-.441a2.434,2.434,0,0,1-.474-.031c-.156,0-.33-.031-.5-.031h-.063A4.72,4.72,0,0,0,8585.449,7821.662Z" transform="translate(-8452.839 -7773.303)"/>
          <path id="Path_6826" data-name="Path 6826" d="M8668.382,7821.63h-.077c-.157,0-.333.031-.506.031a2.25,2.25,0,0,1-.458.031h-.44c.267,0,.536-.031.8-.031A5.122,5.122,0,0,0,8668.382,7821.63Z" transform="translate(-8353.663 -7773.303)"/>
          <path id="Path_6827" data-name="Path 6827" d="M8574.463,7814.509h0c-.029-.08-.062-.175-.093-.268C8574.4,7814.334,8574.434,7814.429,8574.463,7814.509Z" transform="translate(-8465.535 -7777.573)"/>
          <path id="Path_6828" data-name="Path 6828" d="M8574.9,7815.431c-.094-.157-.157-.3-.236-.458a1.374,1.374,0,0,0-.065-.173C8574.71,7815.037,8574.807,7815.21,8574.9,7815.431Z" transform="translate(-8465.236 -7777.248)"/>
          <path id="Path_6829" data-name="Path 6829" d="M8576.386,7817.528a2.947,2.947,0,0,1-.236-.269.031.031,0,0,0,.031.031C8576.26,7817.37,8576.322,7817.466,8576.386,7817.528Z" transform="translate(-8463.374 -7775.826)"/>
          <path id="Path_6830" data-name="Path 6830" d="M8576.964,7818.113a1.712,1.712,0,0,1-.3-.3,1.682,1.682,0,0,1-.173-.172C8576.663,7817.812,8576.789,7817.97,8576.964,7818.113Z" transform="translate(-8462.942 -7775.607)"/>
          <path id="Path_6831" data-name="Path 6831" d="M8577.089,7818.233c-.062-.062-.126-.109-.188-.173C8576.963,7818.124,8577.027,7818.17,8577.089,7818.233Z" transform="translate(-8462.479 -7775.364)"/>
          <path id="Path_6832" data-name="Path 6832" d="M8578.816,7819.615c-.172-.1-.3-.222-.474-.332a.934.934,0,0,1-.269-.221,1.864,1.864,0,0,1-.205-.143,3.667,3.667,0,0,1,.474.363C8578.469,7819.394,8578.645,7819.488,8578.816,7819.615Z" transform="translate(-8461.227 -7774.867)"/>
          <path id="Path_6833" data-name="Path 6833" d="M8578.639,7819.47a1.021,1.021,0,0,0,.335.221c-.033-.031-.066-.031-.112-.063A1.017,1.017,0,0,1,8578.639,7819.47Z" transform="translate(-8460.364 -7774.549)"/>
          <path id="Path_6834" data-name="Path 6834" d="M8579.719,7820.125c-.112-.063-.238-.126-.349-.189h-.032c-.062-.031-.126-.095-.187-.127C8579.338,7819.9,8579.513,7820.031,8579.719,7820.125Z" transform="translate(-8459.724 -7774.352)"/>
          <path id="Path_6835" data-name="Path 6835" d="M8582.138,7821.128c-.268-.094-.5-.158-.742-.251-.031-.017-.094-.017-.126-.048C8581.539,7820.94,8581.837,7821.035,8582.138,7821.128Z" transform="translate(-8457.135 -7773.764)"/>
          <path id="Path_6836" data-name="Path 6836" d="M8582.656,7821.289a7.627,7.627,0,0,0,.947.236c-.206-.031-.41-.094-.647-.143-.126-.03-.188-.062-.3-.094a1.971,1.971,0,0,1-.395-.127,2.271,2.271,0,0,1-.441-.142C8582.088,7821.1,8582.356,7821.194,8582.656,7821.289Z" transform="translate(-8456.368 -7773.654)"/>
          <path id="Path_6837" data-name="Path 6837" d="M8584.839,7821.671l.8.1a4.856,4.856,0,0,1-.709-.1c-.032.031-.063,0-.1,0-.108,0-.205-.031-.348-.031-.188-.031-.424-.062-.632-.095a4.883,4.883,0,0,1-.8-.174c-.031,0-.095-.032-.129-.032C8583.562,7821.466,8584.193,7821.578,8584.839,7821.671Z" transform="translate(-8454.918 -7773.469)"/>
          <path id="Path_6838" data-name="Path 6838" d="M8585.46,7821.662h-.3c-.11,0-.235-.031-.347-.031h-.062A5.383,5.383,0,0,0,8585.46,7821.662Z" transform="translate(-8452.955 -7773.303)"/>
          <path id="Path_6839" data-name="Path 6839" d="M8667.41,7821.662c.235,0,.471-.031.711-.031h-.081c-.093,0-.219.031-.33.031h-.3Z" transform="translate(-8353.262 -7773.303)"/>
          <path id="Path_6840" data-name="Path 6840" d="M8668.745,7821.684c.629-.094,1.278-.205,1.91-.363a.2.2,0,0,1-.129.03l-.8.19c-.206.017-.445.079-.649.079a1.247,1.247,0,0,1-.331.063c-.032,0-.062.031-.1.031l-.709.095C8668.209,7821.778,8668.476,7821.715,8668.745,7821.684Z" transform="translate(-8352.06 -7773.48)"/>
          <path id="Path_6841" data-name="Path 6841" d="M8671.443,7821.02c-.142.064-.269.078-.442.142-.126.032-.268.095-.4.127-.108.031-.2.063-.314.094-.188.049-.395.08-.63.143.3-.062.6-.143.944-.236C8670.875,7821.194,8671.143,7821.1,8671.443,7821.02Z" transform="translate(-8350.243 -7773.654)"/>
          <path id="Path_6842" data-name="Path 6842" d="M8670.79,7821.128c.3-.094.6-.221.9-.3-.033.031-.1.031-.127.048C8671.248,7820.97,8671.027,7821.066,8670.79,7821.128Z" transform="translate(-8349.133 -7773.764)"/>
          <path id="Path_6843" data-name="Path 6843" d="M8673.081,7820.125c.2-.095.361-.221.568-.316a2.065,2.065,0,0,1-.207.127h-.031A.949.949,0,0,1,8673.081,7820.125Z" transform="translate(-8346.468 -7774.352)"/>
          <path id="Path_6844" data-name="Path 6844" d="M8674.071,7819.47c-.062.063-.175.126-.236.189-.031.031-.063.031-.094.047A1.782,1.782,0,0,0,8674.071,7819.47Z" transform="translate(-8345.74 -7774.549)"/>
          <path id="Path_6845" data-name="Path 6845" d="M8675.087,7818.92c-.077.063-.142.095-.2.143-.1.095-.206.158-.269.221a3.685,3.685,0,0,1-.476.332c.175-.127.3-.222.476-.332A2.827,2.827,0,0,1,8675.087,7818.92Z" transform="translate(-8345.076 -7774.867)"/>
          <path id="Path_6846" data-name="Path 6846" d="M8675.78,7818.06c-.062.063-.126.11-.189.173C8675.654,7818.17,8675.718,7818.124,8675.78,7818.06Z" transform="translate(-8343.552 -7775.364)"/>
          <path id="Path_6847" data-name="Path 6847" d="M8676.2,7817.659a.716.716,0,0,1-.158.175.362.362,0,0,1-.141.125C8676.01,7817.866,8676.1,7817.755,8676.2,7817.659Z" transform="translate(-8343.146 -7775.595)"/>
          <path id="Path_6848" data-name="Path 6848" d="M8676.51,7817.26c-.063.08-.156.175-.219.269.063-.094.126-.158.188-.237A.03.03,0,0,0,8676.51,7817.26Z" transform="translate(-8342.698 -7775.826)"/>
          <path id="Path_6849" data-name="Path 6849" d="M8678.091,7814.81a1.051,1.051,0,0,0-.063.19,2.452,2.452,0,0,1-.237.458A5.87,5.87,0,0,0,8678.091,7814.81Z" transform="translate(-8340.867 -7777.242)"/>
          <path id="Path_6850" data-name="Path 6850" d="M8678.291,7814.242c-.031.093-.062.155-.095.251,0,0,0,.017-.046.017A.64.64,0,0,0,8678.291,7814.242Z" transform="translate(-8340.48 -7777.573)"/>
          <path id="Path_6851" data-name="Path 6851" d="M8963,8157.548v6.074c0,6.169-2.629,12.039-7.211,17.072-8.336,4.874-19.208,8.094-31.271,8.694-.5.03-.967.063-1.485.063-.918.031-1.819.063-2.718.063H8572.573c-.9,0-1.818-.032-2.719-.063-.472,0-.963-.032-1.437-.062-.672-.017-1.325-.08-2-.112-11.256-.851-21.366-3.943-29.3-8.552-4.627-5.063-7.235-10.934-7.235-17.134v-7.1c0,8.094,5.819,15.51,15.01,20.464a57.553,57.553,0,0,0,24.284,6.39,8.555,8.555,0,0,0,.9.032h.291c.72.032,1.485.032,2.248.032h347.74c.715,0,1.482-.032,2.178-.032h.292c.336,0,.672-.032,1.011-.032C8945.2,8182.225,8962.143,8171.021,8963,8157.548Z" transform="translate(-8523.152 -7353.759)" fill="#fff"/>
          <path id="Path_6852" data-name="Path 6852" d="M8969.729,7834.955l.046-.062c0-17.577-21.607-32.061-49.241-32.96h-.087c-.87-.032-1.766-.032-2.655-.032h-345.5c-.9,0-1.811.032-2.658.032h-.132c-1.139.016-2.233.078-3.329.172a67.7,67.7,0,0,0-29.1,8.491c-4.53,5.064-7.144,10.933-7.144,17.2v7.1c0-8.188,5.738-15.541,14.889-20.5a57.252,57.252,0,0,1,24.957-6.389h.244l.335-.032c.713-.031,1.386-.031,1.983-.031h345.5c.557,0,1.139,0,1.811.031l.42.032c21.942.725,39.2,11.959,40.088,25.765v-5.916c0-6.265-2.607-12.15-7.162-17.2C8963.324,7816.7,8969.729,7825.346,8969.729,7834.955Z" transform="translate(-8523.129 -7784.702)" fill="#fff"/>
          <path id="Path_6853" data-name="Path 6853" d="M8537.468,8608.331c-7.289-8.484-11.849-20.552-11.849-33.784V7841.172c0-13.343,4.56-25.434,11.817-33.852a57.639,57.639,0,0,0-5.048,23.937V8584.5A57.887,57.887,0,0,0,8537.468,8608.331Z" transform="translate(-8525.619 -7781.57)" fill="#fff"/>
          <path id="Path_6854" data-name="Path 6854" d="M8731.3,7841.3v733.44a56,56,0,0,1-1.546,13.123,53.73,53.73,0,0,1-3.249,9.475c-.269.639-.568,1.232-.868,1.8-.442.881-.9,1.76-1.4,2.617a44.036,44.036,0,0,1-4.766,6.7c.048-.043.048-.043.048-.086a57.543,57.543,0,0,0,5.05-23.785V7831.409a57.978,57.978,0,0,0-5.05-23.96C8726.774,7815.867,8731.3,7827.916,8731.3,7841.3Z" transform="translate(-8284.689 -7781.494)" fill="#fff"/>
          <path id="Path_6855" data-name="Path 6855" d="M8651.174,7813.959H8614.4a1.06,1.06,0,0,1-1.106-1v-1.72a1.07,1.07,0,0,1,1.106-.994h36.778a1.068,1.068,0,0,1,1.1.994v1.72A1.048,1.048,0,0,1,8651.174,7813.959Z" transform="translate(-8410.968 -7779.877)" fill="#fff"/>
          <g id="Group_930" data-name="Group 930" transform="translate(8.063)">
            <path id="Path_6327" data-name="Path 6327" d="M8530.8,8575.173a.241.241,0,0,0-.067-.176c.067.045.067.087.111.176Zm9.141,13.445c.067,0,.067.045.113.045.089.176.223.262.31.415A1.99,1.99,0,0,0,8539.938,8588.618Zm22.218,14.39a2.687,2.687,0,0,1,.626.148c.043.045.089.045.177.091A5.047,5.047,0,0,0,8562.156,8603.008Zm374.363,3.359a.042.042,0,0,0,.043-.044,2.213,2.213,0,0,0,.559-.044C8936.942,8606.323,8936.74,8606.323,8936.52,8606.367Zm30.932-815.129a1.29,1.29,0,0,0-.244-.239,5.456,5.456,0,0,0,.624.5A.806.806,0,0,0,8967.451,7791.238Zm.761,802.229c.181-.178.29-.3.469-.461a1.529,1.529,0,0,1,.426-.3C8968.771,8592.92,8968.5,8593.248,8968.212,8593.467Z" transform="translate(-8530.73 -7790.999)" fill="#fff"/>
          </g>
        </g>
      </g>
    </g>
    <ellipse id="Ellipse_252" data-name="Ellipse 252" cx="252" cy="17" rx="252" ry="17" transform="translate(4130 -905)" fill="rgba(255,255,255,0.33)" opacity="0.59"/>
  </g>
</svg>
