<svg xmlns="http://www.w3.org/2000/svg" width="1042" height="846.673" viewBox="0 0 1042 846.673">
  <g id="Group_985" data-name="Group 985" transform="translate(-806 -4226.327)">
    <g id="Scene_Home" data-name="Scene/Home" transform="translate(812.222 4226.327)">
      <g id="Clock" transform="translate(758.549 38.992)">
        <circle id="Clock_Frame" data-name="Clock Frame" cx="53" cy="53" r="53" fill="#f2f2f2"/>
        <circle id="Time" cx="3" cy="3" r="3" transform="translate(50 8)" fill="rgba(0,0,0,0.1)"/>
        <circle id="Time-2" data-name="Time" cx="3" cy="3" r="3" transform="translate(8 50)" fill="rgba(0,0,0,0.1)"/>
        <circle id="Time-3" data-name="Time" cx="3" cy="3" r="3" transform="translate(92 50)" fill="rgba(0,0,0,0.1)"/>
        <circle id="Time-4" data-name="Time" cx="3" cy="3" r="3" transform="translate(50 92)" fill="rgba(0,0,0,0.1)"/>
        <path id="Hand" d="M2,0,4,35H0Z" transform="translate(51 17)" fill="#afb9c5"/>
        <path id="Hand-2" data-name="Hand" d="M2,0,4,24H0Z" transform="translate(72.113 69.284) rotate(135)" fill="#afb9c5"/>
        <circle id="Time-5" data-name="Time" cx="4" cy="4" r="4" transform="translate(49 49)" fill="#c5cfd6"/>
      </g>
      <g id="Background_Shape_2" data-name="Background Shape 2" transform="translate(0 144.409)" opacity="0.346">
        <path id="Background_Shape" data-name="Background Shape" d="M197.811,294.692c-9.783-131.715-534.655-385.939-632.1-261.181s-3.764,358.9,200.436,418.852S207.594,426.407,197.811,294.692Z" transform="translate(473 0)" fill="#f2f2f2"/>
        <path id="Background_Shape-2" data-name="Background Shape" d="M.21,250.353c9-111.9,491.625-327.87,581.224-221.883s66.919,328.917-120.846,379.853S-8.785,362.25.21,250.353Z" transform="translate(336 96.922)" fill="#dde3e9"/>
      </g>
      <g id="Hanging_Lamp" data-name="Hanging Lamp" transform="translate(44.954)">
        <g id="Light" transform="translate(0 87.724)">
          <ellipse id="Hanging_Lamp_Light" data-name="Hanging Lamp Light" cx="42.5" cy="22.5" rx="42.5" ry="22.5" transform="translate(7 12)" fill="#f2f2f2"/>
          <path id="Hanging_Lamp-2" data-name="Hanging Lamp" d="M99,50C99,22.386,76.838,0,49.5,0S0,22.386,0,50" fill="#dde3e9"/>
        </g>
        <rect id="Wire" width="5" height="95.051" transform="translate(47)" fill="#dde3e9"/>
      </g>
      <g id="Hanging_Lamp-3" data-name="Hanging Lamp" transform="translate(165.703 0.362)" opacity="0.7">
        <g id="Light-2" data-name="Light" transform="translate(0 181.184)">
          <ellipse id="Hanging_Lamp_Light-2" data-name="Hanging Lamp Light" cx="31.768" cy="18.158" rx="31.768" ry="18.158" transform="translate(5.232 9.684)" fill="#f2f2f2"/>
          <path id="Hanging_Lamp-4" data-name="Hanging Lamp" d="M74,40.351C74,18.066,57.435,0,37,0S0,18.066,0,40.351" fill="#dde3e9"/>
        </g>
        <rect id="Wire-2" data-name="Wire" width="5" height="204.184" transform="translate(35)" fill="#dde3e9"/>
      </g>
      <g id="Lamp" transform="translate(794.732 227.546)">
        <path id="Body" d="M0,34.791,29.442,6.843a13.174,13.174,0,0,1,17.944,0l78.384,74.405A23.465,23.465,0,0,1,133.2,98.267v492.86" transform="translate(59.233 10)" fill="none" stroke="#cbcbcb" stroke-miterlimit="10" stroke-width="8"/>
        <rect id="Lamp_Base" data-name="Lamp Base" width="59" height="7" rx="3" transform="translate(162.431 600.127)" fill="#afb9c5"/>
        <g id="Lamp_Top" data-name="Lamp Top" transform="translate(47.066 0) rotate(45)">
          <path id="Lamp-2" data-name="Lamp" d="M33,0h0A33,33,0,0,1,66,33V61a0,0,0,0,1,0,0H0a0,0,0,0,1,0,0V33A33,33,0,0,1,33,0Z" fill="#c5cfd6"/>
          <ellipse id="Lamp-3" data-name="Lamp" cx="33" cy="6.5" rx="33" ry="6.5" transform="translate(0.179 53.562)" fill="#f2f2f2"/>
        </g>
      </g>
      <g id="Table" transform="translate(32.179 577.673)">
        <g id="Lamp-4" data-name="Lamp" transform="translate(23)">
          <rect id="Lamp_Base-2" data-name="Lamp Base" width="38" height="9" rx="2" transform="translate(21 144)" fill="#afb9c5"/>
          <path id="Lamp_Body" data-name="Lamp Body" d="M15.5,75a15.5,15.5,0,0,1,0-31H23c6.44-20.872,7.217-44,7.217-44h4.566A167.709,167.709,0,0,0,42,44h6.5a15.5,15.5,0,0,1,0,31Z" transform="translate(8 71)" fill="#dde3e9"/>
          <path id="Shade" d="M4.622,1.679S21.811,0,39,0,73.378,1.679,73.378,1.679L78,81.133S58.5,83,39,83,0,81.133,0,81.133Z" fill="#c5cfd6"/>
        </g>
        <path id="Table-2" data-name="Table" d="M104,104V22H21v82H0V0H125V104Z" transform="translate(0 153)" fill="#f2f2f2"/>
      </g>
      <g id="Plant" transform="translate(753.564 552.673)">
        <g id="Succulents" transform="translate(13 0)">
          <path id="Thi_Succs_" data-name="Thi Succs!" d="M.381.208C9.214,21.2,24.229,35.781,32.182,57.6c4.716,12.942,6.682,27.015,6.8,41.427.065,7.828-.071,15.662-.108,23.49-.036,7.634-.243,15.219-.891,22.8-.651,7.625-1.38,15.16-1.7,22.833-.25,5.978-.365,12.932-2.391,18.385-1.611,4.337-5.707,4.972-6.794-.288a42.045,42.045,0,0,1-.461-9.193c.085-3.855.31-7.7.424-11.559.46-15.468-.136-30.938.175-46.412.3-15.119,2.248-30.221.1-45.238-1.776-12.4-6.287-23.051-11.471-33.26C10.874,30.771,5.445,21.187,2.075,10.014A53.84,53.84,0,0,1,0,.03Q.235-.079.381.208Z" transform="translate(3 0)" fill="#c1dee2"/>
          <path id="Thi_Succs_2" data-name="Thi Succs!" d="M.974.617C2.723,1.88,3.7,3.728,4.882,5.551c1.47,2.266,3.2,4.313,4.668,6.581C12.615,16.86,15.308,21.879,18.1,26.8a96.064,96.064,0,0,1,11.326,30.1c2.067,11.2,2.625,22.754,3.492,34.117.92,12.044,1.846,24.176,1.968,36.267.055,5.417.347,11.167-.3,16.546-.4,3.349-1.916,6.2-5.323,6.175-7.237-.057-10.634-8.073-12.053-14.646-2.089-9.679-2.506-19.961-2.175-29.86C15.432,93.558,17.5,81.8,18.4,69.912c.95-12.587.413-24.951-3.914-36.8-2.186-5.989-4.724-11.835-7-17.784A57.489,57.489,0,0,0,4.409,7.831C2.951,5.208,1.142,2.826,0,0Z" transform="translate(0 41)" fill="#89c5cc"/>
          <path id="Thi_Succs_3" data-name="Thi Succs!" d="M17.334.518,18,0a66.162,66.162,0,0,1-2.676,7.341,59.91,59.91,0,0,0-1.729,7.136c-1.255,5.681-2.7,11.234-3.889,16.963C7.36,42.777,7.8,54.99,9.342,67.568c1.453,11.881,3.751,23.745,4.845,35.623a163.552,163.552,0,0,1,.432,29.409c-.588,6.383-2.517,14-7.771,13.361-2.474-.3-3.764-3.281-4.284-6.642-.835-5.4-1.01-11.074-1.335-16.443C.5,110.9.358,98.951.214,87.092.078,75.9-.3,64.494.452,53.587a102.687,102.687,0,0,1,6.2-28.758c1.7-4.61,3.317-9.328,5.225-13.721.915-2.107,2.033-3.97,2.949-6.075C15.563,3.339,16.148,1.6,17.334.518Z" transform="translate(67 16)" fill="#c1dee2"/>
          <path id="Thi_Succs_4" data-name="Thi Succs!" d="M.209.3C1.166-1.3,3.272,3.993,3.593,4.66q-.2-.5-.409-.993A44.1,44.1,0,0,1,7.9,13.734c1.069,3.585,1.987,7.242,2.99,10.853,1.882,6.774,4.31,13.356,6.016,20.191a65.7,65.7,0,0,1,1.678,20.1A171.685,171.685,0,0,0,18.4,86.462c.233,3.418,1.344,6.6,2.1,9.892s1.362,6.632,2.263,9.884c.207-.424.233.993.233,1.1a6.829,6.829,0,0,1-.381,2.265,6.1,6.1,0,0,1-3.841,4.212c-3.456.988-6.666-2.157-7.78-5.477A90.858,90.858,0,0,1,7.755,93.3,70.881,70.881,0,0,1,7.1,79.44c.409-9.179,2.07-18.238,2.519-27.414.489-9.99-1.49-19.376-3.147-29.1A84.98,84.98,0,0,0,3.356,9.134,38.761,38.761,0,0,0,1.048,4.061C.558,3.112-.431,1.418.209.3Z" transform="translate(3 76)" fill="#c1dee2"/>
          <path id="Thi_Succs_5" data-name="Thi Succs!" d="M10.252,35.7c-.4,11.445-1.08,22.8-2.606,34.127C6.089,81.38,4.3,92.9,2.8,104.463c-1.459,11.259-2.987,22.7-2.784,34.121.15,8.409-1.244,22.634,8.1,26.784,9.459,4.2,11.488-13.746,12.109-19.67,1.19-11.366.8-22.852.227-34.28-.593-11.729-1.583-23.4-2.81-35.085-1.363-12.981-2.432-26.02-3.29-39.038-.425-6.439-.529-12.867-.412-19.308C14.048,11.911,13.817,5.77,11.656,0l-.339.246" transform="translate(21 25)" fill="#69a1ac"/>
          <path id="Thi_Succs_6" data-name="Thi Succs!" d="M12.083,5.955c-1.7,2.478-3.416,4.932-5.022,7.557C4.186,18.209,1.587,23.432.8,30.147-.831,44.2.481,59.379.8,73.863c.065,2.96-.31,5.83.857,8.647,1.058,2.554,3.035,4.5,4.92,4.49C10.611,86.977,10,77.1,10,72.746c.012-7.623-.843-15.324-.769-22.94a159.271,159.271,0,0,1,1.626-22.278A128.354,128.354,0,0,1,15.729,6.81c.3-.9,2.429-7.872.415-6.671" transform="translate(68 91)" fill="#89c5cc"/>
          <path id="Thi_Succs_7" data-name="Thi Succs!" d="M14.262,0c-2.653,0-2.637,13.226-2.717,14.925-.288,6.131-.221,12.263-.4,18.395-.4,13.381-.889,26.88-2.9,40.107C7.161,80.547,5.907,87.636,4.557,94.7,3.2,101.789,1.387,108.867.5,116.044c-.855,6.9-.372,13.934-.255,20.867a182.673,182.673,0,0,0,1.242,20.877c.225,1.707.49,3.407.773,5.1a40.455,40.455,0,0,0,.5,4.51c.639,2.152,3.379,2.856,5.224,2.519,4.993-.912,8.182-7.18,9.887-11.76,2.178-5.848,3.334-12.192,4.474-18.356a160.431,160.431,0,0,0,2.4-21.181c.722-14.448-.2-28.911-1.24-43.313-.576-8.009-1.241-15.984-2.258-23.943-1.013-7.926-2.313-15.816-3.16-23.765-.615-5.777-1.221-11.561-1.619-17.36C16.371,8.859,16.291,0,14.262,0" transform="translate(48 22)" fill="#69a1ac"/>
          <path id="Thi_Succs_8" data-name="Thi Succs!" d="M26.941,118.139c-.432-13.886-6.014-74.88-7.284-91.672-.318-4.2-3.375-21.7-3.772-26.467-1.075,1.347-.983,22.309-.972,27.126.012,4.765-.578,9.45-.882,14.189-.31,4.836-7.459,67.285-8.386,71.932-1.846,9.244-3.081,18.729-4.033,28.18C.683,150.639-.76,160.358.482,169.618a28.306,28.306,0,0,0,1.473,6.188c.795,2.116,1.339,4.073,1.977,6.287,1.026,3.567,2.883,6.7,5.736,8.169,5.849,3.019,8.99-3.815,10.583-9.765a159.221,159.221,0,0,0,4.94-29.138c.847-11.04,2.1-22.1,1.75-33.22" transform="translate(32 0)" fill="#89c5cc"/>
        </g>
        <g id="Planter" transform="translate(0 159)">
          <rect id="Vase" width="91" height="91" rx="2" transform="translate(10)" fill="#fff"/>
          <rect id="Leg" width="10" height="113" rx="2" transform="translate(0 10)" fill="#c5cfd6"/>
          <rect id="Leg-2" data-name="Leg" width="10" height="113" rx="2" transform="translate(50 10)" fill="#c5cfd6"/>
          <rect id="Leg-3" data-name="Leg" width="10" height="113" rx="2" transform="translate(101 10)" fill="#c5cfd6"/>
        </g>
      </g>
    </g>
    <ellipse id="Ellipse_188" data-name="Ellipse 188" cx="102" cy="11.5" rx="102" ry="11.5" transform="translate(806 5050)" fill="rgba(255,255,255,0.3)"/>
    <ellipse id="Ellipse_189" data-name="Ellipse 189" cx="102" cy="11.5" rx="102" ry="11.5" transform="translate(1516 5049)" fill="rgba(255,255,255,0.3)"/>
    <ellipse id="Ellipse_190" data-name="Ellipse 190" cx="51" cy="6" rx="51" ry="6" transform="translate(1746 5056)" fill="rgba(255,255,255,0.3)"/>
  </g>
</svg>
