<svg xmlns="http://www.w3.org/2000/svg" xmlns:xlink="http://www.w3.org/1999/xlink" width="206.497" height="78.359" viewBox="0 0 206.497 78.359">
  <defs>
    <filter id="Path_516" x="26.02" y="20.857" width="47.333" height="57.436" filterUnits="userSpaceOnUse">
      <feOffset dy="3" input="SourceAlpha"/>
      <feGaussianBlur stdDeviation="3" result="blur"/>
      <feFlood flood-opacity="0.161"/>
      <feComposite operator="in" in2="blur"/>
      <feComposite in="SourceGraphic"/>
    </filter>
    <filter id="Rectangle_658" x="25.218" y="20.726" width="27.377" height="57.632" filterUnits="userSpaceOnUse">
      <feOffset dy="3" input="SourceAlpha"/>
      <feGaussianBlur stdDeviation="3" result="blur-2"/>
      <feFlood flood-opacity="0.161"/>
      <feComposite operator="in" in2="blur-2"/>
      <feComposite in="SourceGraphic"/>
    </filter>
    <filter id="Path_513" x="34.263" y="20.727" width="57.982" height="26.539" filterUnits="userSpaceOnUse">
      <feOffset dy="3" input="SourceAlpha"/>
      <feGaussianBlur stdDeviation="3" result="blur-3"/>
      <feFlood flood-opacity="0.161"/>
      <feComposite operator="in" in2="blur-3"/>
      <feComposite in="SourceGraphic"/>
    </filter>
    <filter id="Path_512" x="38.859" y="45.785" width="34.739" height="32.501" filterUnits="userSpaceOnUse">
      <feOffset dy="3" input="SourceAlpha"/>
      <feGaussianBlur stdDeviation="3" result="blur-4"/>
      <feFlood flood-opacity="0.161"/>
      <feComposite operator="in" in2="blur-4"/>
      <feComposite in="SourceGraphic"/>
    </filter>
    <filter id="Path_514" x="28.064" y="0" width="64.158" height="46.843" filterUnits="userSpaceOnUse">
      <feOffset dy="3" input="SourceAlpha"/>
      <feGaussianBlur stdDeviation="3" result="blur-5"/>
      <feFlood flood-opacity="0.161"/>
      <feComposite operator="in" in2="blur-5"/>
      <feComposite in="SourceGraphic"/>
    </filter>
    <filter id="Path_515" x="0" y="0.002" width="64.634" height="48.592" filterUnits="userSpaceOnUse">
      <feOffset dy="3" input="SourceAlpha"/>
      <feGaussianBlur stdDeviation="3" result="blur-6"/>
      <feFlood flood-opacity="0.161"/>
      <feComposite operator="in" in2="blur-6"/>
      <feComposite in="SourceGraphic"/>
    </filter>
    <filter id="Path_592" x="57.939" y="26.816" width="148.557" height="51.464" filterUnits="userSpaceOnUse">
      <feOffset dy="3" input="SourceAlpha"/>
      <feGaussianBlur stdDeviation="3" result="blur-7"/>
      <feFlood flood-opacity="0.161"/>
      <feComposite operator="in" in2="blur-7"/>
      <feComposite in="SourceGraphic"/>
    </filter>
  </defs>
  <g id="Group_992" data-name="Group 992" transform="translate(-94.742 -561.96)">
    <g id="Group_307" data-name="Group 307" transform="translate(103.742 567.961)">
      <g transform="matrix(1, 0, 0, 1, -9, -6)" filter="url(#Path_516)">
        <path id="Path_516-2" data-name="Path 516" d="M-.049-21.3l8.8.192L1.008-35.243A13,13,0,0,0,8.283-46.679,13.5,13.5,0,0,0-5.252-60.2l-15.317.592-.009,38.276,8.559.569V-33.722h4.286ZM-12.019-51.749h6.767A4.777,4.777,0,0,1-.74-46.679a4.777,4.777,0,0,1-4.511,5.07h-6.767Z" transform="translate(55.6 87.06)" fill="#fff"/>
      </g>
      <g transform="matrix(1, 0, 0, 1, -9, -6)" filter="url(#Rectangle_658)">
        <path id="Rectangle_658-2" data-name="Rectangle 658" d="M3,0H9.377a0,0,0,0,1,0,0V39.632a0,0,0,0,1,0,0H3a3,3,0,0,1-3-3V3A3,3,0,0,1,3,0Z" transform="translate(34.22 26.73)" fill="#fff"/>
      </g>
      <g transform="matrix(1, 0, 0, 1, -9, -6)" filter="url(#Path_513)">
        <path id="Path_513-2" data-name="Path 513" d="M0,18.737,8.124,0l.415,39.967L0,39.982Z" transform="translate(83.25 26.73) rotate(90)" fill="#fff"/>
      </g>
      <g transform="matrix(1, 0, 0, 1, -9, -6)" filter="url(#Path_512)">
        <path id="Path_512-2" data-name="Path 512" d="M-13.991,49.417l8.752-1.547L2.232,60.789s.972,1.582.246,1.582H-4.864a3.725,3.725,0,0,1-1.417-.3,2.365,2.365,0,0,1-.894-.882Z" transform="translate(61.85 3.92)" fill="#fff"/>
      </g>
      <g transform="matrix(1, 0, 0, 1, -9, -6)" filter="url(#Path_514)">
        <path id="Path_514-2" data-name="Path 514" d="M-46.033,29.159-27.5,26.82.125,55.664l-18.677-8.081Z" transform="translate(83.1 -20.82)" fill="#fff"/>
      </g>
      <g transform="matrix(1, 0, 0, 1, -9, -6)" filter="url(#Path_515)">
        <path id="Path_515-2" data-name="Path 515" d="M-1.651,26.829h-13.4a7.245,7.245,0,0,0-2.723.417,8.013,8.013,0,0,0-2.349,1.6L-48.286,57.415h8.993Z" transform="translate(57.29 -20.82)" fill="#fff"/>
      </g>
    </g>
    <g transform="matrix(1, 0, 0, 1, 94.74, 561.96)" filter="url(#Path_592)">
      <path id="Path_592-2" data-name="Path 592" d="M9.757-26.812h17.1a12.242,12.242,0,0,0,.289-2.7c0-6.792-5.2-11.874-12.232-11.874C7.3-41.385,2.1-36.212,2.1-29.51S7.2-17.636,15.44-17.636c4.575,0,8.139-1.574,10.5-4.633l-5.779-3.1a6.523,6.523,0,0,1-4.623,1.709C12.887-23.663,10.672-24.473,9.757-26.812Zm-.144-5.038c.674-2.294,2.5-3.553,5.249-3.553a4.933,4.933,0,0,1,5.1,3.553Zm38.864-8.906v2.114A9.362,9.362,0,0,0,41.3-41.385,11.636,11.636,0,0,0,29.791-29.51,11.636,11.636,0,0,0,41.3-17.636a9.362,9.362,0,0,0,7.176-2.744v2.114H55.7V-40.755ZM42.746-24.023c-3.323,0-5.731-2.114-5.731-5.487S39.423-35,42.746-35s5.731,2.114,5.731,5.487S46.069-24.023,42.746-24.023ZM61-18.266h7.224V-51.1H61Zm12.521,0h7.224V-51.1H73.519Zm24.079.63c7.079,0,12.762-5.173,12.762-11.874S104.678-41.385,97.6-41.385,84.836-36.212,84.836-29.51,90.519-17.636,97.6-17.636Zm0-6.567A5.225,5.225,0,0,1,92.06-29.51,5.225,5.225,0,0,1,97.6-34.818a5.225,5.225,0,0,1,5.538,5.307A5.225,5.225,0,0,1,97.6-24.2Zm23.212-9.985c0-.81.771-1.259,2.023-1.259a3.511,3.511,0,0,1,3.227,1.979l6.164-3.1a10.727,10.727,0,0,0-9.391-4.813c-5.008,0-9.439,2.474-9.439,7.376,0,7.781,11.847,6.477,11.847,8.951,0,.9-.867,1.394-2.6,1.394a3.946,3.946,0,0,1-4.093-2.654l-6.261,3.328c1.878,3.643,5.538,5.352,10.354,5.352,5.2,0,10.017-2.2,10.017-7.376C132.658-33.334,120.811-31.624,120.811-34.188Z" transform="translate(64.84 83.92)" fill="#fff"/>
    </g>
  </g>
</svg>
